<?xml version="1.0" encoding="UTF-8"?>
<svg width="414" height="896" viewBox="0 0 414 896" xmlns="http://www.w3.org/2000/svg">
  <!-- 背景 -->
  <rect width="414" height="896" fill="white"/>
  
  <!-- 顶部导航栏 -->
  <rect width="414" height="64" fill="white"/>
  <line x1="0" y1="64" x2="414" y2="64" stroke="#EEEEEE" stroke-width="1"/>
  <text x="207" y="36" font-family="Arial, sans-serif" font-size="18" font-weight="bold" text-anchor="middle" fill="#333333">祭祖日历</text>
  <path d="M24 32 L16 32 M16 32 L20 28 M16 32 L20 36" stroke="#666666" stroke-width="2" stroke-linecap="round"/>
  <circle cx="382" cy="32" r="2" fill="#666666"/>
  <circle cx="390" cy="32" r="2" fill="#666666"/>
  <circle cx="398" cy="32" r="2" fill="#666666"/>
  
  <!-- 祭祖活动概览卡片 -->
  <rect x="16" y="76" width="382" height="100" rx="8" fill="white" stroke="#EEEEEE" stroke-width="1"/>
  
  <text x="36" y="106" font-family="Arial, sans-serif" font-size="16" font-weight="bold" fill="#333333">下次祭祖活动</text>
  <text x="36" y="132" font-family="Arial, sans-serif" font-size="14" fill="#666666">清明节祭祖 · 张氏家族祠堂</text>
  <text x="36" y="156" font-family="Arial, sans-serif" font-size="14" fill="#B92525">2023年4月5日 · 上午9:00</text>
  
  <rect x="282" y="86" width="96" height="80" rx="4" fill="#FFF8E1"/>
  <text x="330" y="116" font-family="Arial, sans-serif" font-size="24" font-weight="bold" text-anchor="middle" fill="#FF8F00">18</text>
  <text x="330" y="138" font-family="Arial, sans-serif" font-size="12" text-anchor="middle" fill="#FF8F00">天后</text>
  <text x="330" y="154" font-family="Arial, sans-serif" font-size="10" text-anchor="middle" fill="#FF8F00">25人已报名</text>
  
  <!-- 月份选择器 -->
  <rect x="16" y="188" width="382" height="40" rx="4" fill="#F5F5F5"/>
  <text x="46" y="212" font-family="Arial, sans-serif" font-size="14" fill="#666666">2023年</text>
  
  <path d="M86 212 L94 206 L94 218 Z" fill="#666666"/>
  <text x="114" y="212" font-family="Arial, sans-serif" font-size="14" font-weight="bold" fill="#333333">3月</text>
  <path d="M144 212 L136 206 L136 218 Z" fill="#666666"/>
  
  <circle cx="352" cy="208" r="14" fill="white" stroke="#EEEEEE" stroke-width="1"/>
  <path d="M346 208 L358 208 M352 202 L352 214" stroke="#666666" stroke-width="1.5"/>
  
  <!-- 日历视图 -->
  <rect x="16" y="240" width="382" height="330" rx="8" fill="white" stroke="#EEEEEE" stroke-width="1"/>
  
  <!-- 星期标题 -->
  <text x="44" y="270" font-family="Arial, sans-serif" font-size="12" text-anchor="middle" fill="#999999">日</text>
  <text x="97" y="270" font-family="Arial, sans-serif" font-size="12" text-anchor="middle" fill="#999999">一</text>
  <text x="151" y="270" font-family="Arial, sans-serif" font-size="12" text-anchor="middle" fill="#999999">二</text>
  <text x="206" y="270" font-family="Arial, sans-serif" font-size="12" text-anchor="middle" fill="#999999">三</text>
  <text x="260" y="270" font-family="Arial, sans-serif" font-size="12" text-anchor="middle" fill="#999999">四</text>
  <text x="315" y="270" font-family="Arial, sans-serif" font-size="12" text-anchor="middle" fill="#999999">五</text>
  <text x="370" y="270" font-family="Arial, sans-serif" font-size="12" text-anchor="middle" fill="#999999">六</text>
  
  <line x1="16" y1="280" x2="398" y2="280" stroke="#EEEEEE" stroke-width="1"/>
  
  <!-- 第一行日期 -->
  <text x="44" y="310" font-family="Arial, sans-serif" font-size="14" text-anchor="middle" fill="#BBBBBB">26</text>
  <text x="97" y="310" font-family="Arial, sans-serif" font-size="14" text-anchor="middle" fill="#BBBBBB">27</text>
  <text x="151" y="310" font-family="Arial, sans-serif" font-size="14" text-anchor="middle" fill="#BBBBBB">28</text>
  <text x="206" y="310" font-family="Arial, sans-serif" font-size="14" text-anchor="middle" fill="#333333">1</text>
  <text x="260" y="310" font-family="Arial, sans-serif" font-size="14" text-anchor="middle" fill="#333333">2</text>
  <text x="315" y="310" font-family="Arial, sans-serif" font-size="14" text-anchor="middle" fill="#333333">3</text>
  <text x="370" y="310" font-family="Arial, sans-serif" font-size="14" text-anchor="middle" fill="#333333">4</text>
  
  <!-- 第二行日期 -->
  <text x="44" y="360" font-family="Arial, sans-serif" font-size="14" text-anchor="middle" fill="#333333">5</text>
  <text x="97" y="360" font-family="Arial, sans-serif" font-size="14" text-anchor="middle" fill="#333333">6</text>
  <text x="151" y="360" font-family="Arial, sans-serif" font-size="14" text-anchor="middle" fill="#333333">7</text>
  <text x="206" y="360" font-family="Arial, sans-serif" font-size="14" text-anchor="middle" fill="#333333">8</text>
  <text x="260" y="360" font-family="Arial, sans-serif" font-size="14" text-anchor="middle" fill="#333333">9</text>
  <text x="315" y="360" font-family="Arial, sans-serif" font-size="14" text-anchor="middle" fill="#333333">10</text>
  <text x="370" y="360" font-family="Arial, sans-serif" font-size="14" text-anchor="middle" fill="#333333">11</text>
  
  <!-- 第三行日期 -->
  <text x="44" y="410" font-family="Arial, sans-serif" font-size="14" text-anchor="middle" fill="#333333">12</text>
  <text x="97" y="410" font-family="Arial, sans-serif" font-size="14" text-anchor="middle" fill="#333333">13</text>
  <text x="151" y="410" font-family="Arial, sans-serif" font-size="14" text-anchor="middle" fill="#333333">14</text>
  <text x="206" y="410" font-family="Arial, sans-serif" font-size="14" text-anchor="middle" fill="#333333">15</text>
  <text x="260" y="410" font-family="Arial, sans-serif" font-size="14" text-anchor="middle" fill="#333333">16</text>
  <text x="315" y="410" font-family="Arial, sans-serif" font-size="14" text-anchor="middle" fill="#333333">17</text>
  <text x="370" y="410" font-family="Arial, sans-serif" font-size="14" text-anchor="middle" fill="#333333">18</text>
  <rect x="350" y="390" width="40" height="40" rx="20" fill="#FFF8E1" stroke="#FFB100" stroke-width="1"/>
  <circle cx="370" cy="396" r="2" fill="#FFB100"/>
  
  <!-- 第四行日期 -->
  <text x="44" y="460" font-family="Arial, sans-serif" font-size="14" text-anchor="middle" fill="#333333">19</text>
  <text x="97" y="460" font-family="Arial, sans-serif" font-size="14" text-anchor="middle" fill="#333333">20</text>
  <text x="151" y="460" font-family="Arial, sans-serif" font-size="14" text-anchor="middle" fill="#333333">21</text>
  <circle cx="151" cy="435" r="18" fill="#FFB100"/>
  <text x="151" y="440" font-family="Arial, sans-serif" font-size="12" text-anchor="middle" fill="white">今</text>
  <text x="206" y="460" font-family="Arial, sans-serif" font-size="14" text-anchor="middle" fill="#333333">22</text>
  <text x="260" y="460" font-family="Arial, sans-serif" font-size="14" text-anchor="middle" fill="#333333">23</text>
  <text x="315" y="460" font-family="Arial, sans-serif" font-size="14" text-anchor="middle" fill="#333333">24</text>
  <text x="370" y="460" font-family="Arial, sans-serif" font-size="14" text-anchor="middle" fill="#333333">25</text>
  
  <!-- 第五行日期 -->
  <text x="44" y="510" font-family="Arial, sans-serif" font-size="14" text-anchor="middle" fill="#333333">26</text>
  <text x="97" y="510" font-family="Arial, sans-serif" font-size="14" text-anchor="middle" fill="#333333">27</text>
  <text x="151" y="510" font-family="Arial, sans-serif" font-size="14" text-anchor="middle" fill="#333333">28</text>
  <text x="206" y="510" font-family="Arial, sans-serif" font-size="14" text-anchor="middle" fill="#333333">29</text>
  <text x="260" y="510" font-family="Arial, sans-serif" font-size="14" text-anchor="middle" fill="#333333">30</text>
  <text x="315" y="510" font-family="Arial, sans-serif" font-size="14" text-anchor="middle" fill="#333333">31</text>
  <text x="370" y="510" font-family="Arial, sans-serif" font-size="14" text-anchor="middle" fill="#BBBBBB">1</text>
  
  <!-- 重要祭祖活动列表 -->
  <rect x="16" y="582" width="382" height="40" rx="4" fill="white" stroke="#EEEEEE" stroke-width="1"/>
  <text x="36" y="607" font-family="Arial, sans-serif" font-size="16" font-weight="bold" fill="#333333">重要祭祖活动</text>
  
  <!-- 活动1 -->
  <rect x="16" y="634" width="382" height="80" rx="8" fill="white" stroke="#EEEEEE" stroke-width="1"/>
  <rect x="16" y="634" width="8" height="80" rx="4 0 0 4" fill="#B92525"/>
  <text x="40" y="662" font-family="Arial, sans-serif" font-size="16" font-weight="bold" fill="#333333">清明节祭祖</text>
  <text x="40" y="688" font-family="Arial, sans-serif" font-size="14" fill="#666666">2023年4月5日 · 张氏家族祠堂</text>
  <text x="320" y="662" font-family="Arial, sans-serif" font-size="12" fill="#B92525" text-anchor="end">未开始</text>
  <text x="320" y="688" font-family="Arial, sans-serif" font-size="12" fill="#666666" text-anchor="end">25人参与</text>
  
  <circle cx="358" cy="674" r="12" fill="white" stroke="#EEEEEE" stroke-width="1"/>
  <path d="M352 674 L364 674 M358 668 L358 680" stroke="#999999" stroke-width="1" transform="rotate(45 358 674)"/>
  
  <!-- 活动2 -->
  <rect x="16" y="726" width="382" height="80" rx="8" fill="white" stroke="#EEEEEE" stroke-width="1"/>
  <rect x="16" y="726" width="8" height="80" rx="4 0 0 4" fill="#4CAF50"/>
  <text x="40" y="754" font-family="Arial, sans-serif" font-size="16" font-weight="bold" fill="#333333">中元节祭祖</text>
  <text x="40" y="780" font-family="Arial, sans-serif" font-size="14" fill="#666666">2023年8月30日 · 张氏家族祠堂</text>
  <text x="320" y="754" font-family="Arial, sans-serif" font-size="12" fill="#4CAF50" text-anchor="end">报名中</text>
  <text x="320" y="780" font-family="Arial, sans-serif" font-size="12" fill="#666666" text-anchor="end">18人参与</text>
  
  <circle cx="358" cy="766" r="12" fill="white" stroke="#EEEEEE" stroke-width="1"/>
  <path d="M352 766 L364 766 M358 760 L358 772" stroke="#999999" stroke-width="1" transform="rotate(45 358 766)"/>
  
  <!-- 底部导航栏 -->
  <rect y="856" width="414" height="40" fill="white"/>
  <line x1="0" y1="856" x2="414" y2="856" stroke="#EEEEEE" stroke-width="1"/>
  
  <text x="51.75" y="880" font-family="Arial, sans-serif" font-size="10" text-anchor="middle" fill="#666666">首页</text>
  <path d="M51.75 870 L57.75 864 L51.75 858 L45.75 864 Z" fill="none" stroke="#666666" stroke-width="1"/>
  
  <text x="155.25" y="880" font-family="Arial, sans-serif" font-size="10" text-anchor="middle" fill="#666666">族谱</text>
  <path d="M143.25 864 L155.25 864 M149.25 858 L149.25 870 M161.25 864 L167.25 870 M161.25 864 L167.25 858" fill="none" stroke="#666666" stroke-width="1"/>
  
  <text x="258.75" y="880" font-family="Arial, sans-serif" font-size="10" text-anchor="middle" fill="#666666">家史</text>
  <path d="M252.75 861 L264.75 861 L264.75 870 L252.75 870 Z" fill="none" stroke="#666666" stroke-width="1"/>
  <line x1="252.75" y1="865" x2="264.75" y2="865" stroke="#666666" stroke-width="1"/>
  
  <text x="362.25" y="880" font-family="Arial, sans-serif" font-size="10" text-anchor="middle" fill="#666666">我的</text>
  <circle cx="362.25" cy="864" r="6" fill="none" stroke="#666666" stroke-width="1"/>
  <path d="M356.25 873 L368.25 873 M362.25 870 L362.25 876" stroke="#666666" stroke-width="1"/>
  
  <!-- 浮动操作按钮 -->
  <circle cx="374" cy="782" r="24" fill="#B92525"/>
  <path d="M367 782 L381 782 M374 775 L374 789" stroke="white" stroke-width="2"/>
</svg> 