<?xml version="1.0" encoding="UTF-8"?>
<svg width="414" height="896" viewBox="0 0 414 896" xmlns="http://www.w3.org/2000/svg">
  <!-- 背景 -->
  <rect width="414" height="896" fill="white"/>
  
  <!-- 顶部导航栏 -->
  <rect width="414" height="64" fill="white"/>
  <line x1="0" y1="64" x2="414" y2="64" stroke="#EEEEEE" stroke-width="1"/>
  <text x="207" y="36" font-family="Arial, sans-serif" font-size="18" font-weight="bold" text-anchor="middle" fill="#333333">家族故事</text>
  <circle cx="382" cy="32" r="2" fill="#666666"/>
  <circle cx="390" cy="32" r="2" fill="#666666"/>
  <circle cx="398" cy="32" r="2" fill="#666666"/>
  
  <!-- 搜索框 -->
  <rect x="16" y="76" width="382" height="40" rx="20" fill="#F5F5F5"/>
  <circle cx="36" cy="96" r="10" fill="none" stroke="#999999" stroke-width="1.5"/>
  <line x1="43" y1="103" x2="48" y2="108" stroke="#999999" stroke-width="1.5"/>
  <text x="56" y="101" font-family="Arial, sans-serif" font-size="14" fill="#999999">搜索家族故事</text>
  
  <!-- 故事分类栏 -->
  <rect x="0" y="128" width="414" height="44" fill="white"/>
  <line x1="0" y1="172" x2="414" y2="172" stroke="#EEEEEE" stroke-width="1"/>
  
  <rect x="0" y="128" width="103.5" height="44" fill="white"/>
  <line x1="0" y1="170" x2="103.5" y2="170" stroke="#B92525" stroke-width="2"/>
  <text x="51.75" y="155" font-family="Arial, sans-serif" font-size="14" font-weight="bold" text-anchor="middle" fill="#B92525">全部</text>
  
  <rect x="103.5" y="128" width="103.5" height="44" fill="white"/>
  <text x="155.25" y="155" font-family="Arial, sans-serif" font-size="14" text-anchor="middle" fill="#666666">家族历史</text>
  
  <rect x="207" y="128" width="103.5" height="44" fill="white"/>
  <text x="258.75" y="155" font-family="Arial, sans-serif" font-size="14" text-anchor="middle" fill="#666666">人物传记</text>
  
  <rect x="310.5" y="128" width="103.5" height="44" fill="white"/>
  <text x="362.25" y="155" font-family="Arial, sans-serif" font-size="14" text-anchor="middle" fill="#666666">家风家训</text>
  
  <!-- 故事1 -->
  <rect x="16" y="184" width="382" height="160" rx="8" fill="white" stroke="#EEEEEE" stroke-width="1"/>
  
  <rect x="16" y="184" width="120" height="160" fill="#F5F5F5" rx="8 0 0 8"/>
  <circle cx="76" cy="264" r="40" fill="#DDD"/>
  <path d="M56 264 L96 264 M76 244 L76 284" stroke="#BBB" stroke-width="2"/>
  
  <text x="152" y="210" font-family="Arial, sans-serif" font-size="16" font-weight="bold" fill="#333333">张氏家族迁徙史</text>
  <text x="152" y="232" font-family="Arial, sans-serif" font-size="12" fill="#666666">记录了张氏家族从河南迁徙至上海的历程，展现了祖先们在艰难环境中的奋斗精神和家族传承。</text>
  
  <text x="152" y="284" font-family="Arial, sans-serif" font-size="12" fill="#999999">族谱管理员 · 2023-04-15</text>
  
  <text x="328" y="284" font-family="Arial, sans-serif" font-size="12" fill="#999999">15次阅读</text>
  <path d="M320 284 L324 280 L328 284 L324 288 Z" fill="#999999"/>
  
  <!-- 故事2 -->
  <rect x="16" y="356" width="382" height="160" rx="8" fill="white" stroke="#EEEEEE" stroke-width="1"/>
  
  <rect x="16" y="356" width="120" height="160" fill="#F5F5F5" rx="8 0 0 8"/>
  <circle cx="76" cy="436" r="40" fill="#DDD"/>
  <path d="M56 436 L96 436 M76 416 L76 456" stroke="#BBB" stroke-width="2"/>
  
  <text x="152" y="382" font-family="Arial, sans-serif" font-size="16" font-weight="bold" fill="#333333">张永康传记</text>
  <text x="152" y="404" font-family="Arial, sans-serif" font-size="12" fill="#666666">记录了张永康先生在动荡年代的创业故事，以及其在商界的卓越成就和对家族的深远影响。</text>
  
  <text x="152" y="456" font-family="Arial, sans-serif" font-size="12" fill="#999999">张大明 · 2023-03-10</text>
  
  <text x="328" y="456" font-family="Arial, sans-serif" font-size="12" fill="#999999">24次阅读</text>
  <path d="M320 456 L324 452 L328 456 L324 460 Z" fill="#999999"/>
  
  <!-- 故事3 -->
  <rect x="16" y="528" width="382" height="160" rx="8" fill="white" stroke="#EEEEEE" stroke-width="1"/>
  
  <rect x="16" y="528" width="120" height="160" fill="#F5F5F5" rx="8 0 0 8"/>
  <circle cx="76" cy="608" r="40" fill="#DDD"/>
  <path d="M56 608 L96 608 M76 588 L76 628" stroke="#BBB" stroke-width="2"/>
  
  <text x="152" y="554" font-family="Arial, sans-serif" font-size="16" font-weight="bold" fill="#333333">《张氏家训》解读</text>
  <text x="152" y="576" font-family="Arial, sans-serif" font-size="12" fill="#666666">对张氏家族百年家训进行详细解读，分析其蕴含的处世哲学和价值观念，以及对当代家族成员的指导意义。</text>
  
  <text x="152" y="628" font-family="Arial, sans-serif" font-size="12" fill="#999999">张文华 · 2023-01-25</text>
  
  <text x="328" y="628" font-family="Arial, sans-serif" font-size="12" fill="#999999">32次阅读</text>
  <path d="M320 628 L324 624 L328 628 L324 632 Z" fill="#999999"/>
  
  <!-- 故事4 -->
  <rect x="16" y="700" width="382" height="120" rx="8" fill="white" stroke="#EEEEEE" stroke-width="1"/>
  
  <text x="32" y="726" font-family="Arial, sans-serif" font-size="16" font-weight="bold" fill="#333333">宗亲聚会活动记录</text>
  <text x="32" y="748" font-family="Arial, sans-serif" font-size="12" fill="#666666">详细记录了2022年春节宗亲聚会活动的全过程，包括祭祖仪式、族谱更新和各项文化活动。</text>
  
  <text x="32" y="800" font-family="Arial, sans-serif" font-size="12" fill="#999999">张立军 · 2023-02-05</text>
  
  <text x="328" y="800" font-family="Arial, sans-serif" font-size="12" fill="#999999">20次阅读</text>
  <path d="M320 800 L324 796 L328 800 L324 804 Z" fill="#999999"/>
  
  <!-- 底部导航栏 -->
  <rect y="856" width="414" height="40" fill="white"/>
  <line x1="0" y1="856" x2="414" y2="856" stroke="#EEEEEE" stroke-width="1"/>
  
  <text x="51.75" y="880" font-family="Arial, sans-serif" font-size="10" text-anchor="middle" fill="#666666">首页</text>
  <path d="M51.75 870 L57.75 864 L51.75 858 L45.75 864 Z" fill="none" stroke="#666666" stroke-width="1"/>
  
  <text x="155.25" y="880" font-family="Arial, sans-serif" font-size="10" text-anchor="middle" fill="#666666">族谱</text>
  <path d="M143.25 864 L155.25 864 M149.25 858 L149.25 870 M161.25 864 L167.25 870 M161.25 864 L167.25 858" fill="none" stroke="#666666" stroke-width="1"/>
  
  <text x="258.75" y="880" font-family="Arial, sans-serif" font-size="10" text-anchor="middle" font-weight="bold" fill="#B92525">家史</text>
  <path d="M252.75 861 L264.75 861 L264.75 870 L252.75 870 Z" fill="none" stroke="#B92525" stroke-width="1.5"/>
  <line x1="252.75" y1="865" x2="264.75" y2="865" stroke="#B92525" stroke-width="1.5"/>
  
  <text x="362.25" y="880" font-family="Arial, sans-serif" font-size="10" text-anchor="middle" fill="#666666">我的</text>
  <circle cx="362.25" cy="864" r="6" fill="none" stroke="#666666" stroke-width="1"/>
  <path d="M356.25 873 L368.25 873 M362.25 870 L362.25 876" stroke="#666666" stroke-width="1"/>
  
  <!-- 浮动操作按钮 -->
  <circle cx="374" cy="782" r="24" fill="#B92525"/>
  <path d="M367 782 L381 782 M374 775 L374 789" stroke="white" stroke-width="2"/>
</svg> 