<?xml version="1.0" encoding="UTF-8"?>
<svg width="414" height="896" viewBox="0 0 414 896" xmlns="http://www.w3.org/2000/svg">
  <!-- 背景 -->
  <rect width="414" height="896" fill="white"/>
  
  <!-- 顶部导航栏 -->
  <rect width="414" height="64" fill="white"/>
  <line x1="0" y1="64" x2="414" y2="64" stroke="#EEEEEE" stroke-width="1"/>
  <text x="207" y="36" font-family="Arial, sans-serif" font-size="18" font-weight="bold" text-anchor="middle" fill="#333333">筛选成员</text>
  <path d="M24 32 L16 32 M16 32 L20 28 M16 32 L20 36" stroke="#666666" stroke-width="2" stroke-linecap="round"/>
  <circle cx="382" cy="32" r="2" fill="#666666"/>
  <circle cx="390" cy="32" r="2" fill="#666666"/>
  <circle cx="398" cy="32" r="2" fill="#666666"/>
  
  <!-- 搜索框 -->
  <rect x="16" y="76" width="382" height="40" rx="20" fill="#F5F5F5"/>
  <circle cx="36" cy="96" r="10" fill="none" stroke="#999999" stroke-width="1.5"/>
  <line x1="43" y1="103" x2="48" y2="108" stroke="#999999" stroke-width="1.5"/>
  <text x="56" y="101" font-family="Arial, sans-serif" font-size="14" fill="#999999">搜索家族成员</text>
  
  <!-- 视图切换栏 -->
  <rect x="0" y="128" width="414" height="44" fill="white"/>
  <line x1="0" y1="172" x2="414" y2="172" stroke="#EEEEEE" stroke-width="1"/>
  
  <rect x="0" y="128" width="103.5" height="44" fill="white"/>
  <text x="51.75" y="155" font-family="Arial, sans-serif" font-size="14" text-anchor="middle" fill="#666666">树状图</text>
  
  <rect x="103.5" y="128" width="103.5" height="44" fill="white"/>
  <text x="155.25" y="155" font-family="Arial, sans-serif" font-size="14" text-anchor="middle" fill="#666666">列表</text>
  
  <rect x="207" y="128" width="103.5" height="44" fill="white"/>
  <text x="258.75" y="155" font-family="Arial, sans-serif" font-size="14" text-anchor="middle" fill="#666666">世代</text>
  
  <rect x="310.5" y="128" width="103.5" height="44" fill="white"/>
  <line x1="310.5" y1="170" x2="414" y2="170" stroke="#B92525" stroke-width="2"/>
  <text x="362.25" y="155" font-family="Arial, sans-serif" font-size="14" font-weight="bold" text-anchor="middle" fill="#B92525">筛选</text>
  
  <!-- 快速筛选选项 -->
  <rect x="0" y="172" width="414" height="60" fill="white"/>
  <line x1="0" y1="232" x2="414" y2="232" stroke="#EEEEEE" stroke-width="1"/>
  
  <rect x="16" y="184" width="64" height="36" rx="18" fill="#B92525"/>
  <text x="48" y="207" font-family="Arial, sans-serif" font-size="14" font-weight="bold" text-anchor="middle" fill="white">全部</text>
  
  <rect x="90" y="184" width="64" height="36" rx="18" fill="white" stroke="#EEEEEE" stroke-width="1"/>
  <text x="122" y="207" font-family="Arial, sans-serif" font-size="14" text-anchor="middle" fill="#666666">在世</text>
  
  <rect x="164" y="184" width="64" height="36" rx="18" fill="white" stroke="#EEEEEE" stroke-width="1"/>
  <text x="196" y="207" font-family="Arial, sans-serif" font-size="14" text-anchor="middle" fill="#666666">已故</text>
  
  <rect x="238" y="184" width="64" height="36" rx="18" fill="white" stroke="#EEEEEE" stroke-width="1"/>
  <text x="270" y="207" font-family="Arial, sans-serif" font-size="14" text-anchor="middle" fill="#666666">男性</text>
  
  <rect x="312" y="184" width="64" height="36" rx="18" fill="white" stroke="#EEEEEE" stroke-width="1"/>
  <text x="344" y="207" font-family="Arial, sans-serif" font-size="14" text-anchor="middle" fill="#666666">女性</text>
  
  <!-- 筛选世代 -->
  <rect x="0" y="232" width="414" height="140" fill="white"/>
  <line x1="0" y1="372" x2="414" y2="372" stroke="#EEEEEE" stroke-width="1"/>
  
  <text x="16" y="260" font-family="Arial, sans-serif" font-size="16" font-weight="bold" fill="#333333">世代</text>
  
  <rect x="16" y="276" width="64" height="36" rx="4" fill="white" stroke="#EEEEEE" stroke-width="1"/>
  <text x="48" y="299" font-family="Arial, sans-serif" font-size="14" text-anchor="middle" fill="#666666">全部</text>
  
  <rect x="90" y="276" width="64" height="36" rx="4" fill="white" stroke="#EEEEEE" stroke-width="1"/>
  <text x="122" y="299" font-family="Arial, sans-serif" font-size="14" text-anchor="middle" fill="#666666">一世</text>
  
  <rect x="164" y="276" width="64" height="36" rx="4" fill="white" stroke="#EEEEEE" stroke-width="1"/>
  <text x="196" y="299" font-family="Arial, sans-serif" font-size="14" text-anchor="middle" fill="#666666">二世</text>
  
  <rect x="238" y="276" width="64" height="36" rx="4" fill="white" stroke="#EEEEEE" stroke-width="1"/>
  <text x="270" y="299" font-family="Arial, sans-serif" font-size="14" text-anchor="middle" fill="#666666">三世</text>
  
  <rect x="312" y="276" width="64" height="36" rx="4" fill="white" stroke="#EEEEEE" stroke-width="1"/>
  <text x="344" y="299" font-family="Arial, sans-serif" font-size="14" text-anchor="middle" fill="#666666">四世</text>
  
  <rect x="16" y="322" width="64" height="36" rx="4" fill="white" stroke="#EEEEEE" stroke-width="1"/>
  <text x="48" y="345" font-family="Arial, sans-serif" font-size="14" text-anchor="middle" fill="#666666">五世</text>
  
  <rect x="90" y="322" width="64" height="36" rx="4" fill="white" stroke="#EEEEEE" stroke-width="1"/>
  <text x="122" y="345" font-family="Arial, sans-serif" font-size="14" text-anchor="middle" fill="#666666">六世</text>
  
  <!-- 筛选支系 -->
  <rect x="0" y="372" width="414" height="140" fill="white"/>
  <line x1="0" y1="512" x2="414" y2="512" stroke="#EEEEEE" stroke-width="1"/>
  
  <text x="16" y="400" font-family="Arial, sans-serif" font-size="16" font-weight="bold" fill="#333333">支系</text>
  
  <rect x="16" y="416" width="64" height="36" rx="4" fill="white" stroke="#EEEEEE" stroke-width="1"/>
  <text x="48" y="439" font-family="Arial, sans-serif" font-size="14" text-anchor="middle" fill="#666666">全部</text>
  
  <rect x="90" y="416" width="64" height="36" rx="4" fill="white" stroke="#EEEEEE" stroke-width="1"/>
  <text x="122" y="439" font-family="Arial, sans-serif" font-size="14" text-anchor="middle" fill="#666666">明德支</text>
  
  <rect x="164" y="416" width="64" height="36" rx="4" fill="white" stroke="#EEEEEE" stroke-width="1"/>
  <text x="196" y="439" font-family="Arial, sans-serif" font-size="14" text-anchor="middle" fill="#666666">明礼支</text>
  
  <rect x="238" y="416" width="64" height="36" rx="4" fill="white" stroke="#EEEEEE" stroke-width="1"/>
  <text x="270" y="439" font-family="Arial, sans-serif" font-size="14" text-anchor="middle" fill="#666666">明信支</text>
  
  <rect x="16" y="462" width="120" height="36" rx="4" fill="white" stroke="#EEEEEE" stroke-width="1"/>
  <text x="76" y="485" font-family="Arial, sans-serif" font-size="14" text-anchor="middle" fill="#666666">永康分支</text>
  
  <rect x="146" y="462" width="120" height="36" rx="4" fill="white" stroke="#EEEEEE" stroke-width="1"/>
  <text x="206" y="485" font-family="Arial, sans-serif" font-size="14" text-anchor="middle" fill="#666666">永安分支</text>
  
  <!-- 筛选年代 -->
  <rect x="0" y="512" width="414" height="96" fill="white"/>
  <line x1="0" y1="608" x2="414" y2="608" stroke="#EEEEEE" stroke-width="1"/>
  
  <text x="16" y="540" font-family="Arial, sans-serif" font-size="16" font-weight="bold" fill="#333333">年代</text>
  
  <rect x="16" y="556" width="64" height="36" rx="4" fill="white" stroke="#EEEEEE" stroke-width="1"/>
  <text x="48" y="579" font-family="Arial, sans-serif" font-size="14" text-anchor="middle" fill="#666666">全部</text>
  
  <rect x="90" y="556" width="64" height="36" rx="4" fill="white" stroke="#EEEEEE" stroke-width="1"/>
  <text x="122" y="579" font-family="Arial, sans-serif" font-size="14" text-anchor="middle" fill="#666666">清朝</text>
  
  <rect x="164" y="556" width="90" height="36" rx="4" fill="white" stroke="#EEEEEE" stroke-width="1"/>
  <text x="209" y="579" font-family="Arial, sans-serif" font-size="14" text-anchor="middle" fill="#666666">民国时期</text>
  
  <rect x="264" y="556" width="112" height="36" rx="4" fill="white" stroke="#EEEEEE" stroke-width="1"/>
  <text x="320" y="579" font-family="Arial, sans-serif" font-size="14" text-anchor="middle" fill="#666666">新中国成立后</text>
  
  <!-- 筛选关系 -->
  <rect x="0" y="608" width="414" height="96" fill="white"/>
  <line x1="0" y1="704" x2="414" y2="704" stroke="#EEEEEE" stroke-width="1"/>
  
  <text x="16" y="636" font-family="Arial, sans-serif" font-size="16" font-weight="bold" fill="#333333">关系</text>
  
  <rect x="16" y="652" width="70" height="36" rx="4" fill="white" stroke="#EEEEEE" stroke-width="1"/>
  <text x="51" y="675" font-family="Arial, sans-serif" font-size="14" text-anchor="middle" fill="#666666">全部</text>
  
  <rect x="96" y="652" width="90" height="36" rx="4" fill="white" stroke="#EEEEEE" stroke-width="1"/>
  <text x="141" y="675" font-family="Arial, sans-serif" font-size="14" text-anchor="middle" fill="#666666">直系亲属</text>
  
  <rect x="196" y="652" width="90" height="36" rx="4" fill="white" stroke="#EEEEEE" stroke-width="1"/>
  <text x="241" y="675" font-family="Arial, sans-serif" font-size="14" text-anchor="middle" fill="#666666">旁系亲属</text>
  
  <rect x="296" y="652" width="82" height="36" rx="4" fill="white" stroke="#EEEEEE" stroke-width="1"/>
  <text x="337" y="675" font-family="Arial, sans-serif" font-size="14" text-anchor="middle" fill="#666666">姻亲</text>
  
  <!-- 操作按钮 -->
  <rect x="0" y="704" width="414" height="100" fill="white"/>
  
  <rect x="136" y="734" width="60" height="40" rx="4" fill="white" stroke="#CCCCCC" stroke-width="1"/>
  <text x="166" y="760" font-family="Arial, sans-serif" font-size="14" text-anchor="middle" fill="#666666">重置</text>
  
  <rect x="216" y="734" width="120" height="40" rx="4" fill="#B92525"/>
  <text x="276" y="760" font-family="Arial, sans-serif" font-size="14" font-weight="bold" text-anchor="middle" fill="white">应用筛选</text>
  
  <!-- 底部导航栏 -->
  <rect y="856" width="414" height="40" fill="white"/>
  <line x1="0" y1="856" x2="414" y2="856" stroke="#EEEEEE" stroke-width="1"/>
  
  <text x="51.75" y="880" font-family="Arial, sans-serif" font-size="10" text-anchor="middle" fill="#666666">首页</text>
  <path d="M51.75 870 L57.75 864 L51.75 858 L45.75 864 Z" fill="none" stroke="#666666" stroke-width="1"/>
  
  <text x="155.25" y="880" font-family="Arial, sans-serif" font-size="10" text-anchor="middle" font-weight="bold" fill="#B92525">族谱</text>
  <path d="M143.25 864 L155.25 864 M149.25 858 L149.25 870 M161.25 864 L167.25 870 M161.25 864 L167.25 858" fill="none" stroke="#B92525" stroke-width="1.5"/>
  
  <text x="258.75" y="880" font-family="Arial, sans-serif" font-size="10" text-anchor="middle" fill="#666666">家史</text>
  <path d="M252.75 861 L264.75 861 L264.75 870 L252.75 870 Z" fill="none" stroke="#666666" stroke-width="1"/>
  <line x1="252.75" y1="865" x2="264.75" y2="865" stroke="#666666" stroke-width="1"/>
  
  <text x="362.25" y="880" font-family="Arial, sans-serif" font-size="10" text-anchor="middle" fill="#666666">我的</text>
  <circle cx="362.25" cy="864" r="6" fill="none" stroke="#666666" stroke-width="1"/>
  <path d="M356.25 873 L368.25 873 M362.25 870 L362.25 876" stroke="#666666" stroke-width="1"/>
</svg> 