<?xml version="1.0" encoding="UTF-8"?>
<svg width="414" height="896" viewBox="0 0 414 896" xmlns="http://www.w3.org/2000/svg">
  <!-- 背景 -->
  <rect width="414" height="896" fill="white"/>
  
  <!-- 顶部导航栏 -->
  <rect width="414" height="64" fill="white"/>
  <line x1="0" y1="64" x2="414" y2="64" stroke="#EEEEEE" stroke-width="1"/>
  <text x="207" y="36" font-family="Arial, sans-serif" font-size="18" font-weight="bold" text-anchor="middle" fill="#333333">家族族谱</text>
  <path d="M24 32 L16 32 M16 32 L20 28 M16 32 L20 36" stroke="#666666" stroke-width="2" stroke-linecap="round"/>
  <circle cx="382" cy="32" r="2" fill="#666666"/>
  <circle cx="390" cy="32" r="2" fill="#666666"/>
  <circle cx="398" cy="32" r="2" fill="#666666"/>
  
  <!-- 搜索框 -->
  <rect x="16" y="76" width="382" height="40" rx="20" fill="#F5F5F5"/>
  <circle cx="36" cy="96" r="10" fill="none" stroke="#999999" stroke-width="1.5"/>
  <line x1="43" y1="103" x2="48" y2="108" stroke="#999999" stroke-width="1.5"/>
  <text x="56" y="101" font-family="Arial, sans-serif" font-size="14" fill="#999999">搜索家族成员</text>
  
  <!-- 视图切换栏 -->
  <rect x="0" y="128" width="414" height="44" fill="white"/>
  <line x1="0" y1="172" x2="414" y2="172" stroke="#EEEEEE" stroke-width="1"/>
  
  <rect x="0" y="128" width="103.5" height="44" fill="white"/>
  <text x="51.75" y="155" font-family="Arial, sans-serif" font-size="14" text-anchor="middle" fill="#666666">树状图</text>
  
  <rect x="103.5" y="128" width="103.5" height="44" fill="white"/>
  <line x1="103.5" y1="170" x2="207" y2="170" stroke="#B92525" stroke-width="2"/>
  <text x="155.25" y="155" font-family="Arial, sans-serif" font-size="14" font-weight="bold" text-anchor="middle" fill="#B92525">列表</text>
  
  <rect x="207" y="128" width="103.5" height="44" fill="white"/>
  <text x="258.75" y="155" font-family="Arial, sans-serif" font-size="14" text-anchor="middle" fill="#666666">世代</text>
  
  <rect x="310.5" y="128" width="103.5" height="44" fill="white"/>
  <text x="362.25" y="155" font-family="Arial, sans-serif" font-size="14" text-anchor="middle" fill="#666666">筛选</text>
  
  <!-- 侧边世代导航 -->
  <rect x="0" y="172" width="40" height="684" fill="#F8F8F8"/>
  <text x="20" y="200" font-family="Arial, sans-serif" font-size="12" font-weight="bold" text-anchor="middle" fill="#B92525">一</text>
  <text x="20" y="250" font-family="Arial, sans-serif" font-size="12" font-weight="bold" text-anchor="middle" fill="#666666">二</text>
  <text x="20" y="300" font-family="Arial, sans-serif" font-size="12" font-weight="bold" text-anchor="middle" fill="#666666">三</text>
  <text x="20" y="350" font-family="Arial, sans-serif" font-size="12" font-weight="bold" text-anchor="middle" fill="#666666">四</text>
  <text x="20" y="400" font-family="Arial, sans-serif" font-size="12" font-weight="bold" text-anchor="middle" fill="#666666">五</text>
  <text x="20" y="450" font-family="Arial, sans-serif" font-size="12" font-weight="bold" text-anchor="middle" fill="#666666">六</text>
  
  <!-- 一世标题 -->
  <rect x="40" y="172" width="374" height="40" fill="#F5F5F5"/>
  <text x="56" y="196" font-family="Arial, sans-serif" font-size="14" font-weight="bold" fill="#333333">一世 (始迁祖)</text>
  <text x="370" y="196" font-family="Arial, sans-serif" font-size="14" font-weight="bold" text-anchor="end" fill="#666666">1人</text>
  
  <!-- 第一代列表项 -->
  <rect x="40" y="212" width="374" height="80" fill="white"/>
  <line x1="40" y1="292" x2="414" y2="292" stroke="#EEEEEE" stroke-width="1"/>
  
  <defs>
    <linearGradient id="maleGradient" x1="0%" y1="0%" x2="100%" y2="100%">
      <stop offset="0%" style="stop-color:#64B5F6"/>
      <stop offset="100%" style="stop-color:#3F87F5"/>
    </linearGradient>
  </defs>
  <circle cx="72" cy="252" r="20" fill="url(#maleGradient)"/>
  
  <text x="104" y="240" font-family="Arial, sans-serif" font-size="16" font-weight="bold" fill="#333333">张世德</text>
  <rect x="156" y="230" width="40" height="16" rx="4" fill="#EEEEEE"/>
  <text x="162" y="241" font-family="Arial, sans-serif" font-size="10" font-weight="bold" fill="#616161">已故</text>
  
  <text x="104" y="260" font-family="Arial, sans-serif" font-size="14" fill="#666666">始迁祖 · 1824-1898</text>
  <text x="104" y="278" font-family="Arial, sans-serif" font-size="12" fill="#888888">河南 · 商贾 · 子嗣3人</text>
  
  <circle cx="380" cy="252" r="14" fill="white"/>
  <path d="M380 246 L380 258 M374 252 L386 252" stroke="#999999" stroke-width="1" transform="rotate(45 380 252)"/>
  
  <!-- 二世标题 -->
  <rect x="40" y="292" width="374" height="40" fill="#F5F5F5"/>
  <text x="56" y="316" font-family="Arial, sans-serif" font-size="14" font-weight="bold" fill="#333333">二世</text>
  <text x="370" y="316" font-family="Arial, sans-serif" font-size="14" font-weight="bold" text-anchor="end" fill="#666666">3人</text>
  
  <!-- 第二代列表项1 -->
  <rect x="40" y="332" width="374" height="80" fill="white"/>
  <line x1="40" y1="412" x2="414" y2="412" stroke="#EEEEEE" stroke-width="1"/>
  
  <circle cx="72" cy="372" r="20" fill="#3F87F5"/>
  <text x="72" y="377" font-family="Arial, sans-serif" font-size="16" font-weight="bold" text-anchor="middle" fill="white">张</text>
  
  <text x="104" y="360" font-family="Arial, sans-serif" font-size="16" font-weight="bold" fill="#333333">张明德</text>
  <rect x="156" y="350" width="40" height="16" rx="4" fill="#EEEEEE"/>
  <text x="162" y="361" font-family="Arial, sans-serif" font-size="10" font-weight="bold" fill="#616161">已故</text>
  
  <text x="104" y="380" font-family="Arial, sans-serif" font-size="14" fill="#666666">长子 · 1845-1920</text>
  <text x="104" y="398" font-family="Arial, sans-serif" font-size="12" fill="#888888">秀才 · 族谱修纂 · 子嗣3人</text>
  
  <circle cx="380" cy="372" r="14" fill="white"/>
  <path d="M380 366 L380 378 M374 372 L386 372" stroke="#999999" stroke-width="1" transform="rotate(45 380 372)"/>
  
  <!-- 第二代列表项2 -->
  <rect x="40" y="412" width="374" height="80" fill="white"/>
  <line x1="40" y1="492" x2="414" y2="492" stroke="#EEEEEE" stroke-width="1"/>
  
  <circle cx="72" cy="452" r="20" fill="#3F87F5"/>
  <text x="72" y="457" font-family="Arial, sans-serif" font-size="16" font-weight="bold" text-anchor="middle" fill="white">张</text>
  
  <text x="104" y="440" font-family="Arial, sans-serif" font-size="16" font-weight="bold" fill="#333333">张明礼</text>
  <rect x="156" y="430" width="40" height="16" rx="4" fill="#EEEEEE"/>
  <text x="162" y="441" font-family="Arial, sans-serif" font-size="10" font-weight="bold" fill="#616161">已故</text>
  
  <text x="104" y="460" font-family="Arial, sans-serif" font-size="14" fill="#666666">次子 · 1848-1922</text>
  <text x="104" y="478" font-family="Arial, sans-serif" font-size="12" fill="#888888">农耕 · 子嗣4人</text>
  
  <circle cx="380" cy="452" r="14" fill="white"/>
  <path d="M380 446 L380 458 M374 452 L386 452" stroke="#999999" stroke-width="1" transform="rotate(45 380 452)"/>
  
  <!-- 第二代列表项3 -->
  <rect x="40" y="492" width="374" height="80" fill="white"/>
  <line x1="40" y1="572" x2="414" y2="572" stroke="#EEEEEE" stroke-width="1"/>
  
  <circle cx="72" cy="532" r="20" fill="#3F87F5"/>
  <text x="72" y="537" font-family="Arial, sans-serif" font-size="16" font-weight="bold" text-anchor="middle" fill="white">张</text>
  
  <text x="104" y="520" font-family="Arial, sans-serif" font-size="16" font-weight="bold" fill="#333333">张明信</text>
  <rect x="156" y="510" width="40" height="16" rx="4" fill="#EEEEEE"/>
  <text x="162" y="521" font-family="Arial, sans-serif" font-size="10" font-weight="bold" fill="#616161">已故</text>
  
  <text x="104" y="540" font-family="Arial, sans-serif" font-size="14" fill="#666666">三子 · 1852-1925</text>
  <text x="104" y="558" font-family="Arial, sans-serif" font-size="12" fill="#888888">商贾 · 子嗣2人</text>
  
  <circle cx="380" cy="532" r="14" fill="white"/>
  <path d="M380 526 L380 538 M374 532 L386 532" stroke="#999999" stroke-width="1" transform="rotate(45 380 532)"/>
  
  <!-- 三世标题 -->
  <rect x="40" y="572" width="374" height="40" fill="#F5F5F5"/>
  <text x="56" y="596" font-family="Arial, sans-serif" font-size="14" font-weight="bold" fill="#333333">三世</text>
  <text x="370" y="596" font-family="Arial, sans-serif" font-size="14" font-weight="bold" text-anchor="end" fill="#666666">9人</text>
  
  <!-- 第三代列表项1 (高亮当前焦点) -->
  <rect x="40" y="612" width="374" height="80" fill="#FFFAF0" rx="4"/>
  <line x1="40" y1="692" x2="414" y2="692" stroke="#EEEEEE" stroke-width="1"/>
  <rect x="40" y="612" width="3" height="80" fill="#FFB100" rx="1.5"/>
  
  <circle cx="72" cy="652" r="20" fill="#FFB100"/>
  <text x="72" y="657" font-family="Arial, sans-serif" font-size="16" font-weight="bold" text-anchor="middle" fill="white">张</text>
  
  <text x="104" y="640" font-family="Arial, sans-serif" font-size="16" font-weight="bold" fill="#333333">张永康</text>
  <rect x="156" y="630" width="40" height="16" rx="4" fill="#EEEEEE"/>
  <text x="162" y="641" font-family="Arial, sans-serif" font-size="10" font-weight="bold" fill="#616161">已故</text>
  
  <text x="104" y="660" font-family="Arial, sans-serif" font-size="14" fill="#666666">明德长子 · 1870-1935</text>
  <text x="104" y="678" font-family="Arial, sans-serif" font-size="12" fill="#888888">商人 · 上海 · 子嗣2人</text>
  
  <circle cx="380" cy="652" r="14" fill="#FFFAF0"/>
  <path d="M380 646 L380 658 M374 652 L386 652" stroke="#FFB100" stroke-width="1" transform="rotate(45 380 652)"/>
  
  <!-- 底部导航栏 -->
  <rect y="856" width="414" height="40" fill="white"/>
  <line x1="0" y1="856" x2="414" y2="856" stroke="#EEEEEE" stroke-width="1"/>
  
  <text x="51.75" y="880" font-family="Arial, sans-serif" font-size="10" text-anchor="middle" fill="#666666">首页</text>
  <path d="M51.75 870 L57.75 864 L51.75 858 L45.75 864 Z" fill="none" stroke="#666666" stroke-width="1"/>
  
  <text x="155.25" y="880" font-family="Arial, sans-serif" font-size="10" text-anchor="middle" font-weight="bold" fill="#B92525">族谱</text>
  <path d="M143.25 864 L155.25 864 M149.25 858 L149.25 870 M161.25 864 L167.25 870 M161.25 864 L167.25 858" fill="none" stroke="#B92525" stroke-width="1.5"/>
  
  <text x="258.75" y="880" font-family="Arial, sans-serif" font-size="10" text-anchor="middle" fill="#666666">家史</text>
  <path d="M252.75 861 L264.75 861 L264.75 870 L252.75 870 Z" fill="none" stroke="#666666" stroke-width="1"/>
  <line x1="252.75" y1="865" x2="264.75" y2="865" stroke="#666666" stroke-width="1"/>
  
  <text x="362.25" y="880" font-family="Arial, sans-serif" font-size="10" text-anchor="middle" fill="#666666">我的</text>
  <circle cx="362.25" cy="864" r="6" fill="none" stroke="#666666" stroke-width="1"/>
  <path d="M356.25 873 L368.25 873 M362.25 870 L362.25 876" stroke="#666666" stroke-width="1"/>
  
  <!-- 浮动操作按钮 -->
  <circle cx="374" cy="782" r="24" fill="#B92525"/>
  <path d="M367 782 L381 782 M374 775 L374 789" stroke="white" stroke-width="2"/>
</svg> 