<?xml version="1.0" encoding="UTF-8"?>
<svg width="414" height="896" viewBox="0 0 414 896" xmlns="http://www.w3.org/2000/svg">
  <!-- 背景 -->
  <rect width="414" height="896" fill="white"/>
  
  <!-- 顶部导航栏 -->
  <rect width="414" height="64" fill="white"/>
  <line x1="0" y1="64" x2="414" y2="64" stroke="#EEEEEE" stroke-width="1"/>
  <text x="207" y="36" font-family="Arial, sans-serif" font-size="18" font-weight="bold" text-anchor="middle" fill="#333333">张永康家系</text>
  <path d="M24 32 L16 32 M16 32 L20 28 M16 32 L20 36" stroke="#666666" stroke-width="2" stroke-linecap="round"/>
  <circle cx="382" cy="32" r="2" fill="#666666"/>
  <circle cx="390" cy="32" r="2" fill="#666666"/>
  <circle cx="398" cy="32" r="2" fill="#666666"/>
  
  <!-- 路径导航工具栏 -->
  <rect y="64" width="414" height="50" fill="#F8F8F8"/>
  <line x1="0" y1="114" x2="414" y2="114" stroke="#EEEEEE" stroke-width="1"/>
  
  <text x="16" y="84" font-family="Arial, sans-serif" font-size="12" fill="#666666">张氏家族</text>
  <text x="76" y="84" font-family="Arial, sans-serif" font-size="12" fill="#666666">></text>
  <text x="90" y="84" font-family="Arial, sans-serif" font-size="12" fill="#666666">张世德</text>
  <text x="136" y="84" font-family="Arial, sans-serif" font-size="12" fill="#666666">></text>
  <text x="150" y="84" font-family="Arial, sans-serif" font-size="12" fill="#666666">张明德</text>
  <text x="196" y="84" font-family="Arial, sans-serif" font-size="12" fill="#666666">></text>
  <text x="210" y="84" font-family="Arial, sans-serif" font-size="12" font-weight="bold" fill="#B92525">张永康</text>
  
  <text x="16" y="104" font-family="Arial, sans-serif" font-size="11" fill="#666666">直系后代: 24人</text>
  <text x="116" y="104" font-family="Arial, sans-serif" font-size="11" fill="#666666">在世: 18人</text>
  <text x="186" y="104" font-family="Arial, sans-serif" font-size="11" fill="#666666">男:女 17:7</text>
  
  <circle cx="390" cy="89" r="16" fill="white" stroke="#DDDDDD" stroke-width="1"/>
  <path d="M390 83 L390 95 M384 89 L396 89" stroke="#666666" stroke-width="1.5"/>
  
  <!-- 祖先部分标题栏 -->
  <rect y="114" width="414" height="30" fill="#F5F5F5"/>
  <text x="36" y="134" font-family="Arial, sans-serif" font-size="13" font-weight="bold" fill="#555555">祖先 (3代)</text>
  <path d="M24 134 L20 130 M24 134 L20 138" stroke="#555555" stroke-width="1.5" stroke-linecap="round"/>
  <text x="350" y="134" font-family="Arial, sans-serif" font-size="12" fill="#777777">全部展开</text>
  
  <!-- 省略上代标记 -->
  <rect y="144" width="414" height="30" fill="white"/>
  <line x1="36" y1="144" x2="36" y2="174" stroke="#DDDDDD" stroke-width="1"/>
  <rect x="154" y="156" width="106" height="16" rx="8" fill="#F5F5F5"/>
  <text x="174" y="167" font-family="Arial, sans-serif" font-size="11" fill="#999999">更早世代</text>
  
  <!-- 上代1 - 曾祖父 -->
  <rect y="174" width="414" height="60" fill="white"/>
  <line x1="36" y1="174" x2="36" y2="234" stroke="#DDDDDD" stroke-width="1"/>
  <rect x="16" y="190" width="24" height="16" rx="3" fill="#F0F0F0"/>
  <text x="21" y="201" font-family="Arial, sans-serif" font-size="10" fill="#888888">一世</text>
  
  <rect x="52" y="182" width="330" height="50" rx="6" fill="white" stroke="#EEEEEE" stroke-width="1"/>
  <circle cx="74" cy="208" r="14" fill="#3F87F5"/>
  <text x="70" y="213" font-family="Arial, sans-serif" font-size="16" font-weight="bold" fill="white">张</text>
  
  <text x="96" y="201" font-family="Arial, sans-serif" font-size="14" font-weight="bold" fill="#333333">张世德</text>
  <text x="140" y="200" font-family="Arial, sans-serif" font-size="10" fill="#888888">一世</text>
  <rect x="172" y="194" width="40" height="16" rx="4" fill="#EEEEEE"/>
  <text x="178" y="205" font-family="Arial, sans-serif" font-size="10" font-weight="bold" fill="#616161">已故</text>
  
  <text x="96" y="217" font-family="Arial, sans-serif" font-size="12" fill="#666666">始迁祖 · 1824-1898</text>
  
  <text x="96" y="230" font-family="Arial, sans-serif" font-size="11" fill="#777777">⦿ 3    ⦿ 河南    ⦿ 商贾</text>
  
  <circle cx="362" cy="206" r="14" fill="white"/>
  <path d="M356 206 L368 206 M362 200 L362 212" stroke="#999999" stroke-width="1" transform="rotate(45 362 206)"/>
  
  <!-- 上代2 - 祖父 -->
  <rect y="234" width="414" height="60" fill="white"/>
  <line x1="36" y1="234" x2="36" y2="294" stroke="#DDDDDD" stroke-width="1"/>
  <rect x="16" y="250" width="24" height="16" rx="3" fill="#F0F0F0"/>
  <text x="21" y="261" font-family="Arial, sans-serif" font-size="10" fill="#888888">二世</text>
  
  <rect x="52" y="242" width="330" height="50" rx="6" fill="white" stroke="#EEEEEE" stroke-width="1"/>
  <circle cx="74" cy="268" r="14" fill="#3F87F5"/>
  <text x="70" y="273" font-family="Arial, sans-serif" font-size="16" font-weight="bold" fill="white">张</text>
  
  <text x="96" y="261" font-family="Arial, sans-serif" font-size="14" font-weight="bold" fill="#333333">张明德</text>
  <text x="140" y="260" font-family="Arial, sans-serif" font-size="10" fill="#888888">二世</text>
  <rect x="172" y="254" width="40" height="16" rx="4" fill="#EEEEEE"/>
  <text x="178" y="265" font-family="Arial, sans-serif" font-size="10" font-weight="bold" fill="#616161">已故</text>
  
  <text x="96" y="277" font-family="Arial, sans-serif" font-size="12" fill="#666666">长子 · 1845-1920</text>
  
  <text x="96" y="290" font-family="Arial, sans-serif" font-size="11" fill="#777777">⦿ 3    ⦿ 秀才    ⦿ 族谱修纂</text>
  
  <circle cx="362" cy="266" r="14" fill="white"/>
  <path d="M356 266 L368 266 M362 260 L362 272" stroke="#999999" stroke-width="1" transform="rotate(45 362 266)"/>
  
  <!-- 中心人物标题栏 -->
  <rect y="294" width="414" height="30" fill="#FFF8E1"/>
  <text x="36" y="314" font-family="Arial, sans-serif" font-size="13" font-weight="bold" fill="#FF8F00">当前焦点</text>
  <path d="M20 314 L24 310 L28 314 L24 318 Z" fill="#FF8F00"/>
  <text x="350" y="314" font-family="Arial, sans-serif" font-size="11" fill="#FF8F00">⦿ 9次查看</text>
  
  <!-- 中心人物 - 焦点 -->
  <rect y="324" width="414" height="80" fill="white"/>
  <line x1="36" y1="324" x2="36" y2="404" stroke="#DDDDDD" stroke-width="1"/>
  <rect x="16" y="342" width="24" height="16" rx="3" fill="#FFB100"/>
  <text x="21" y="353" font-family="Arial, sans-serif" font-size="10" font-weight="bold" fill="white">三世</text>
  
  <rect x="52" y="332" width="330" height="70" rx="6" fill="#FFFAF0" stroke="#FFB100" stroke-width="2" 
        filter="drop-shadow(0px 2px 6px rgba(255,177,0,0.2))"/>
  <circle cx="80" cy="367" r="20" fill="#FFB100"/>
  <text x="74" y="373" font-family="Arial, sans-serif" font-size="18" font-weight="bold" fill="white">张</text>
  
  <text x="108" y="353" font-family="Arial, sans-serif" font-size="14" font-weight="bold" fill="#333333">张永康</text>
  <text x="152" y="352" font-family="Arial, sans-serif" font-size="10" fill="#888888">三世</text>
  <rect x="184" y="344" width="40" height="16" rx="4" fill="#EEEEEE"/>
  <text x="190" y="355" font-family="Arial, sans-serif" font-size="10" font-weight="bold" fill="#616161">已故</text>
  
  <text x="108" y="369" font-family="Arial, sans-serif" font-size="12" fill="#666666">长子 · 1870-1935</text>
  <text x="280" y="369" font-family="Arial, sans-serif" font-size="12" fill="#888888">子嗣2</text>
  
  <text x="108" y="384" font-family="Arial, sans-serif" font-size="11" fill="#777777">⦿ 商人    ⦿ 上海    ⦿ 义士    ⦿ 《家训》著者</text>
  
  <line x1="108" y1="393" x2="314" y2="393" stroke="#EEEEEE" stroke-width="1" stroke-dasharray="2 2"/>
  
  <text x="108" y="402" font-family="Arial, sans-serif" font-size="11" fill="#777777">⦿ 配偶: 李氏(1875-1940)    ⦿ 定居: 上海市黄浦区</text>
  
  <circle cx="348" cy="357" r="14" fill="#FFFAF0"/>
  <path d="M348 351 L348 363 M342 357 L354 357" stroke="#FFB100" stroke-width="1.5"/>
  
  <circle cx="372" cy="357" r="14" fill="#FFFAF0"/>
  <path d="M368 353 L376 361 M376 353 L368 361" stroke="#FFB100" stroke-width="1.5"/>
  
  <!-- 后代部分标题栏 -->
  <rect y="404" width="414" height="30" fill="#F0F4F8" rx="0"/>
  <text x="36" y="424" font-family="PingFang SC, Heiti SC, sans-serif" font-size="13" font-weight="bold" fill="#1565C0">后代 (3代)</text>
  <path d="M24 424 L20 428 M24 424 L20 420" stroke="#1565C0" stroke-width="1.5" stroke-linecap="round"/>
  <text x="320" y="424" font-family="Arial, sans-serif" font-size="12" fill="#777777">全部展开</text>
  <text x="380" y="424" font-family="Arial, sans-serif" font-size="12" fill="#777777">全部折叠</text>
  
  <!-- 子代节点 -->
  <rect y="434" width="414" height="186" fill="white"/>
  <line x1="36" y1="434" x2="36" y2="620" stroke="#DDDDDD" stroke-width="1"/>
  <rect x="16" y="450" width="24" height="16" rx="3" fill="#F0F0F0"/>
  <text x="21" y="461" font-family="Arial, sans-serif" font-size="10" fill="#888888">四世</text>
  
  <!-- 子代1 - 长子 -->
  <rect x="52" y="442" width="346" height="80" rx="6" fill="white" stroke="#EEEEEE" stroke-width="1"/>
  <circle cx="72" cy="462" r="11" fill="#E0E0E0"/>
  <path d="M66 462 L78 462 M72 456 L72 468" stroke="#666666" stroke-width="1.5" transform="rotate(90 72 462)"/>
  
  <circle cx="106" cy="468" r="16" fill="#3F87F5"/>
  <text x="101" y="473" font-family="Arial, sans-serif" font-size="16" font-weight="bold" fill="white">张</text>
  
  <text x="130" y="460" font-family="Arial, sans-serif" font-size="14" font-weight="bold" fill="#333333">张国华</text>
  <text x="174" y="459" font-family="Arial, sans-serif" font-size="10" fill="#888888">四世</text>
  <rect x="206" y="452" width="40" height="16" rx="4" fill="#EEEEEE"/>
  <text x="212" y="463" font-family="Arial, sans-serif" font-size="10" font-weight="bold" fill="#616161">已故</text>
  
  <text x="130" y="476" font-family="Arial, sans-serif" font-size="12" fill="#666666">长子 · 1905-1968</text>
  <text x="280" y="476" font-family="Arial, sans-serif" font-size="12" fill="#888888">子嗣3</text>
  
  <text x="130" y="492" font-family="Arial, sans-serif" font-size="11" fill="#777777">⦿ 教师    ⦿ 南京    ⦿ 南京大学</text>
  
  <line x1="130" y1="502" x2="314" y2="502" stroke="#EEEEEE" stroke-width="1" stroke-dasharray="2 2"/>
  
  <text x="130" y="512" font-family="Arial, sans-serif" font-size="11" fill="#777777">⦿ 配偶: 王氏(1908-1980)</text>
  
  <circle cx="352" cy="462" r="14" fill="white"/>
  <path d="M346 462 L358 462 M352 456 L352 468" stroke="#999999" stroke-width="1" transform="rotate(45 352 462)"/>
  
  <circle cx="380" cy="462" r="14" fill="white"/>
  <circle cx="380" cy="462" r="5" fill="none" stroke="#999999" stroke-width="1.5"/>
  <path d="M380 453 L380 457 M380 467 L380 471 M371 462 L375 462 M385 462 L389 462" stroke="#999999" stroke-width="1"/>
  
  <!-- 子代2 - 次子 -->
  <rect x="52" y="534" width="346" height="80" rx="6" fill="white" stroke="#EEEEEE" stroke-width="1"/>
  <circle cx="72" cy="554" r="11" fill="#E0E0E0"/>
  <path d="M66 554 L78 554 M72 548 L72 560" stroke="#666666" stroke-width="1.5" transform="rotate(90 72 554)"/>
  
  <circle cx="106" cy="560" r="16" fill="#3F87F5"/>
  <text x="101" y="565" font-family="Arial, sans-serif" font-size="16" font-weight="bold" fill="white">张</text>
  
  <text x="130" y="552" font-family="Arial, sans-serif" font-size="14" font-weight="bold" fill="#333333">张国强</text>
  <text x="174" y="551" font-family="Arial, sans-serif" font-size="10" fill="#888888">四世</text>
  <rect x="206" y="544" width="40" height="16" rx="4" fill="#EEEEEE"/>
  <text x="212" y="555" font-family="Arial, sans-serif" font-size="10" font-weight="bold" fill="#616161">已故</text>
  
  <text x="130" y="568" font-family="Arial, sans-serif" font-size="12" fill="#666666">次子 · 1908-1972</text>
  <text x="280" y="568" font-family="Arial, sans-serif" font-size="12" fill="#888888">子嗣2</text>
  
  <text x="130" y="584" font-family="Arial, sans-serif" font-size="11" fill="#777777">⦿ 军人    ⦿ 烈士    ⦿ 上校军衔</text>
  
  <line x1="130" y1="594" x2="314" y2="594" stroke="#EEEEEE" stroke-width="1" stroke-dasharray="2 2"/>
  
  <text x="130" y="604" font-family="Arial, sans-serif" font-size="11" fill="#777777">⦿ 配偶: 陈氏(1910-1990)</text>
  
  <circle cx="352" cy="554" r="14" fill="white"/>
  <path d="M346 554 L358 554 M352 548 L352 560" stroke="#999999" stroke-width="1" transform="rotate(45 352 554)"/>
  
  <circle cx="380" cy="554" r="14" fill="white"/>
  <circle cx="380" cy="554" r="5" fill="none" stroke="#999999" stroke-width="1.5"/>
  <path d="M380 545 L380 549 M380 559 L380 563 M371 554 L375 554 M385 554 L389 554" stroke="#999999" stroke-width="1"/>
  
  <!-- 省略下代标记 -->
  <rect y="620" width="414" height="30" fill="white"/>
  <line x1="36" y1="620" x2="36" y2="650" stroke="#DDDDDD" stroke-width="1"/>
  <rect x="154" y="632" width="106" height="16" rx="8" fill="#F5F5F5"/>
  <text x="174" y="643" font-family="Arial, sans-serif" font-size="11" fill="#999999">更多世代</text>
  
  <!-- 底部信息栏 -->
  <rect y="856" width="414" height="40" fill="white"/>
  <line x1="0" y1="856" x2="414" y2="856" stroke="#EEEEEE" stroke-width="1"/>
  
  <text x="70" y="880" font-family="Arial, sans-serif" font-size="12" fill="#666666">⦿ 共6代 · 24位成员</text>
  <text x="220" y="880" font-family="Arial, sans-serif" font-size="12" fill="#666666">⦿ 1824年-2023年</text>
  <text x="345" y="880" font-family="Arial, sans-serif" font-size="12" fill="#666666">⦿ 最近更新: 昨天</text>
  
  <!-- 浮动操作按钮 -->
  <circle cx="374" cy="730" r="24" fill="white" stroke="#DDDDDD" stroke-width="1"/>
  <path d="M366 730 L382 730 M374 722 L374 738" stroke="#B92525" stroke-width="2"/>
  
  <circle cx="374" cy="782" r="24" fill="#B92525"/>
  <path d="M367 782 L381 782 M374 775 L374 789" stroke="white" stroke-width="2"/>
  
  <circle cx="374" cy="834" r="24" fill="white" stroke="#DDDDDD" stroke-width="1"/>
  <path d="M367 834 L381 834" stroke="#666666" stroke-width="2"/>
  <path d="M367 827 L381 827" stroke="#666666" stroke-width="2"/>
  <path d="M367 841 L381 841" stroke="#666666" stroke-width="2"/>
  
  <!-- 添加连接线模式的优化，使用虚线表示家族关系 -->
  <line x1="207" y1="404" x2="207" y2="434" stroke="#B92525" stroke-width="1.5" stroke-dasharray="4,2"/>
</svg> 