<?xml version="1.0" encoding="UTF-8"?>
<svg width="414" height="896" viewBox="0 0 414 896" xmlns="http://www.w3.org/2000/svg">
  <!-- 背景 -->
  <rect width="414" height="896" fill="white"/>
  
  <!-- 顶部导航栏 -->
  <rect width="414" height="64" fill="white"/>
  <line x1="0" y1="64" x2="414" y2="64" stroke="#EEEEEE" stroke-width="1"/>
  <text x="207" y="36" font-family="Arial, sans-serif" font-size="18" font-weight="bold" text-anchor="middle" fill="#333333">家族活动</text>
  <path d="M24 32 L16 32 M16 32 L20 28 M16 32 L20 36" stroke="#666666" stroke-width="2" stroke-linecap="round"/>
  <circle cx="382" cy="32" r="2" fill="#666666"/>
  <circle cx="390" cy="32" r="2" fill="#666666"/>
  <circle cx="398" cy="32" r="2" fill="#666666"/>
  
  <!-- 活动分类栏 -->
  <rect x="0" y="64" width="414" height="44" fill="white"/>
  <line x1="0" y1="108" x2="414" y2="108" stroke="#EEEEEE" stroke-width="1"/>
  
  <rect x="0" y="64" width="103.5" height="44" fill="white"/>
  <line x1="0" y1="106" x2="103.5" y2="106" stroke="#4CAF50" stroke-width="2"/>
  <text x="51.75" y="91" font-family="Arial, sans-serif" font-size="14" font-weight="bold" text-anchor="middle" fill="#4CAF50">全部</text>
  
  <rect x="103.5" y="64" width="103.5" height="44" fill="white"/>
  <text x="155.25" y="91" font-family="Arial, sans-serif" font-size="14" text-anchor="middle" fill="#666666">祭祖活动</text>
  
  <rect x="207" y="64" width="103.5" height="44" fill="white"/>
  <text x="258.75" y="91" font-family="Arial, sans-serif" font-size="14" text-anchor="middle" fill="#666666">宗亲聚会</text>
  
  <rect x="310.5" y="64" width="103.5" height="44" fill="white"/>
  <text x="362.25" y="91" font-family="Arial, sans-serif" font-size="14" text-anchor="middle" fill="#666666">文化活动</text>
  
  <!-- 即将举行的活动卡片 -->
  <rect x="16" y="124" width="382" height="140" rx="8" fill="white" 
        stroke="#EEEEEE" stroke-width="1" filter="drop-shadow(0px 2px 4px rgba(0,0,0,0.05))"/>
  
  <rect x="16" y="124" width="110" height="140" rx="8 0 0 8" fill="#E8F5E9"/>
  <defs>
    <linearGradient id="activeGradient" x1="0%" y1="0%" x2="100%" y2="100%">
      <stop offset="0%" style="stop-color:#66BB6A"/>
      <stop offset="100%" style="stop-color:#4CAF50"/>
    </linearGradient>
  </defs>
  <circle cx="71" cy="176" r="28" fill="url(#activeGradient)"/>
  <path d="M61 176 L81 176 M71 166 L71 186" stroke="white" stroke-width="2"/>
  <text x="71" y="214" font-family="Arial, sans-serif" font-size="12" text-anchor="middle" fill="#4CAF50">即将举行</text>
  
  <text x="142" y="150" font-family="Arial, sans-serif" font-size="16" font-weight="bold" fill="#333333">清明节祭祖活动</text>
  
  <path d="M142 163 L142 163 M145 163 L145 163" stroke="#666666" stroke-width="1"/>
  <text x="152" y="172" font-family="Arial, sans-serif" font-size="14" fill="#666666">时间: 2023年4月5日 9:00</text>
  
  <path d="M142 185 L142 185 M145 185 L145 185" stroke="#666666" stroke-width="1"/>
  <text x="152" y="194" font-family="Arial, sans-serif" font-size="14" fill="#666666">地点: 张氏家族祠堂</text>
  
  <path d="M142 207 L142 207 M145 207 L145 207" stroke="#666666" stroke-width="1"/>
  <text x="152" y="216" font-family="Arial, sans-serif" font-size="14" fill="#666666">组织者: 张大明</text>
  
  <text x="320" y="240" font-family="Arial, sans-serif" font-size="12" fill="#4CAF50" text-anchor="end">点击报名</text>
  <path d="M330 240 L338 236 L338 244 Z" fill="#4CAF50"/>
  
  <!-- 正在进行的活动卡片 -->
  <rect x="16" y="280" width="382" height="140" rx="8" fill="white" stroke="#EEEEEE" stroke-width="1"/>
  
  <rect x="16" y="280" width="110" height="140" rx="8 0 0 8" fill="#FFF3E0"/>
  <circle cx="71" cy="332" r="28" fill="#FF9800"/>
  <path d="M71 322 L71 342 M61 332 L81 332" stroke="white" stroke-width="2" transform="rotate(45 71 332)"/>
  <text x="71" y="370" font-family="Arial, sans-serif" font-size="12" text-anchor="middle" fill="#FF9800">正在进行</text>
  
  <text x="142" y="306" font-family="Arial, sans-serif" font-size="16" font-weight="bold" fill="#333333">张氏族谱整理工作</text>
  
  <path d="M142 319 L142 319 M145 319 L145 319" stroke="#666666" stroke-width="1"/>
  <text x="152" y="328" font-family="Arial, sans-serif" font-size="14" fill="#666666">时间: 2023年3月1日 - 5月31日</text>
  
  <path d="M142 341 L142 341 M145 341 L145 341" stroke="#666666" stroke-width="1"/>
  <text x="152" y="350" font-family="Arial, sans-serif" font-size="14" fill="#666666">地点: 线上协作</text>
  
  <path d="M142 363 L142 363 M145 363 L145 363" stroke="#666666" stroke-width="1"/>
  <text x="152" y="372" font-family="Arial, sans-serif" font-size="14" fill="#666666">组织者: 张文华</text>
  
  <text x="320" y="396" font-family="Arial, sans-serif" font-size="12" fill="#FF9800" text-anchor="end">点击参与</text>
  <path d="M330 396 L338 392 L338 400 Z" fill="#FF9800"/>
  
  <!-- 历史活动标题 -->
  <rect x="16" y="436" width="382" height="40" rx="4" fill="white"/>
  <text x="26" y="462" font-family="Arial, sans-serif" font-size="16" font-weight="bold" fill="#333333">历史活动</text>
  
  <!-- 历史活动1 -->
  <rect x="16" y="488" width="382" height="80" rx="8" fill="white" stroke="#EEEEEE" stroke-width="1"/>
  <text x="96" y="520" font-family="Arial, sans-serif" font-size="16" font-weight="bold" fill="#333333">2023年春节宗亲聚会</text>
  <text x="96" y="544" font-family="Arial, sans-serif" font-size="14" fill="#666666">2023年1月22日 · 上海市宗亲会馆</text>
  <circle cx="56" cy="528" r="20" fill="#F5F5F5" stroke="#E0E0E0" stroke-width="1"/>
  <path d="M46 528 L66 528 M56 518 L56 538" stroke="#999999" stroke-width="1.5" transform="rotate(45 56 528)"/>
  <text x="358" y="532" font-family="Arial, sans-serif" font-size="12" fill="#999999" text-anchor="end">已结束</text>
  
  <!-- 历史活动2 -->
  <rect x="16" y="580" width="382" height="80" rx="8" fill="white" stroke="#EEEEEE" stroke-width="1"/>
  <text x="96" y="612" font-family="Arial, sans-serif" font-size="16" font-weight="bold" fill="#333333">《张氏家训》朗读会</text>
  <text x="96" y="636" font-family="Arial, sans-serif" font-size="14" fill="#666666">2022年12月18日 · 线上直播</text>
  <circle cx="56" cy="620" r="20" fill="#E0E0E0"/>
  <path d="M46 620 L66 620 M56 610 L56 630" stroke="#999999" stroke-width="1.5" transform="rotate(45 56 620)"/>
  <text x="358" y="624" font-family="Arial, sans-serif" font-size="12" fill="#999999" text-anchor="end">已结束</text>
  
  <!-- 历史活动3 -->
  <rect x="16" y="672" width="382" height="80" rx="8" fill="white" stroke="#EEEEEE" stroke-width="1"/>
  <text x="96" y="704" font-family="Arial, sans-serif" font-size="16" font-weight="bold" fill="#333333">2022年中秋家族聚会</text>
  <text x="96" y="728" font-family="Arial, sans-serif" font-size="14" fill="#666666">2022年9月10日 · 张氏家族祠堂</text>
  <circle cx="56" cy="712" r="20" fill="#E0E0E0"/>
  <path d="M46 712 L66 712 M56 702 L56 722" stroke="#999999" stroke-width="1.5" transform="rotate(45 56 712)"/>
  <text x="358" y="716" font-family="Arial, sans-serif" font-size="12" fill="#999999" text-anchor="end">已结束</text>
  
  <!-- 历史活动4 -->
  <rect x="16" y="764" width="382" height="80" rx="8" fill="white" stroke="#EEEEEE" stroke-width="1"/>
  <text x="96" y="796" font-family="Arial, sans-serif" font-size="16" font-weight="bold" fill="#333333">宗亲会历史图片展</text>
  <text x="96" y="820" font-family="Arial, sans-serif" font-size="14" fill="#666666">2022年8月5日 · 上海市宗亲会馆</text>
  <circle cx="56" cy="804" r="20" fill="#E0E0E0"/>
  <path d="M46 804 L66 804 M56 794 L56 814" stroke="#999999" stroke-width="1.5" transform="rotate(45 56 804)"/>
  <text x="358" y="808" font-family="Arial, sans-serif" font-size="12" fill="#999999" text-anchor="end">已结束</text>
  
  <!-- 底部导航栏 -->
  <rect y="856" width="414" height="40" fill="white"/>
  <line x1="0" y1="856" x2="414" y2="856" stroke="#EEEEEE" stroke-width="1"/>
  
  <text x="51.75" y="880" font-family="Arial, sans-serif" font-size="10" text-anchor="middle" fill="#666666">首页</text>
  <path d="M51.75 870 L57.75 864 L51.75 858 L45.75 864 Z" fill="none" stroke="#666666" stroke-width="1"/>
  
  <text x="155.25" y="880" font-family="Arial, sans-serif" font-size="10" text-anchor="middle" fill="#666666">族谱</text>
  <path d="M143.25 864 L155.25 864 M149.25 858 L149.25 870 M161.25 864 L167.25 870 M161.25 864 L167.25 858" fill="none" stroke="#666666" stroke-width="1"/>
  
  <text x="258.75" y="880" font-family="Arial, sans-serif" font-size="10" text-anchor="middle" fill="#666666">家史</text>
  <path d="M252.75 861 L264.75 861 L264.75 870 L252.75 870 Z" fill="none" stroke="#666666" stroke-width="1"/>
  <line x1="252.75" y1="865" x2="264.75" y2="865" stroke="#666666" stroke-width="1"/>
  
  <text x="362.25" y="880" font-family="Arial, sans-serif" font-size="10" text-anchor="middle" fill="#666666">我的</text>
  <circle cx="362.25" cy="864" r="6" fill="none" stroke="#666666" stroke-width="1"/>
  <path d="M356.25 873 L368.25 873 M362.25 870 L362.25 876" stroke="#666666" stroke-width="1"/>
  
  <!-- 浮动操作按钮 -->
  <circle cx="374" cy="782" r="24" fill="#4CAF50"/>
  <path d="M367 782 L381 782 M374 775 L374 789" stroke="white" stroke-width="2"/>
</svg> 