<?xml version="1.0" encoding="UTF-8"?>
<svg width="414" height="896" viewBox="0 0 414 896" xmlns="http://www.w3.org/2000/svg">
  <!-- 背景 -->
  <rect width="414" height="896" fill="white"/>
  
  <!-- 顶部导航栏 -->
  <rect width="414" height="64" fill="white"/>
  <line x1="0" y1="64" x2="414" y2="64" stroke="#EEEEEE" stroke-width="1"/>
  <text x="207" y="36" font-family="Arial, sans-serif" font-size="18" font-weight="bold" text-anchor="middle" fill="#333333">家族族谱</text>
  <path d="M24 32 L16 32 M16 32 L20 28 M16 32 L20 36" stroke="#666666" stroke-width="2" stroke-linecap="round"/>
  <circle cx="382" cy="32" r="2" fill="#666666"/>
  <circle cx="390" cy="32" r="2" fill="#666666"/>
  <circle cx="398" cy="32" r="2" fill="#666666"/>
  
  <!-- 搜索框 -->
  <rect x="16" y="76" width="382" height="40" rx="20" fill="#F5F5F5"/>
  <circle cx="36" cy="96" r="10" fill="none" stroke="#999999" stroke-width="1.5"/>
  <line x1="43" y1="103" x2="48" y2="108" stroke="#999999" stroke-width="1.5"/>
  <text x="56" y="101" font-family="Arial, sans-serif" font-size="14" fill="#999999">搜索家族成员</text>
  
  <!-- 视图切换栏 -->
  <rect x="0" y="128" width="414" height="44" fill="white"/>
  <line x1="0" y1="172" x2="414" y2="172" stroke="#EEEEEE" stroke-width="1"/>
  
  <rect x="0" y="128" width="103.5" height="44" fill="white"/>
  <text x="51.75" y="155" font-family="Arial, sans-serif" font-size="14" text-anchor="middle" fill="#666666">树状图</text>
  
  <rect x="103.5" y="128" width="103.5" height="44" fill="white"/>
  <text x="155.25" y="155" font-family="Arial, sans-serif" font-size="14" text-anchor="middle" fill="#666666">列表</text>
  
  <rect x="207" y="128" width="103.5" height="44" fill="white"/>
  <line x1="207" y1="170" x2="310.5" y2="170" stroke="#B92525" stroke-width="2"/>
  <text x="258.75" y="155" font-family="Arial, sans-serif" font-size="14" font-weight="bold" text-anchor="middle" fill="#B92525">世代</text>
  
  <rect x="310.5" y="128" width="103.5" height="44" fill="white"/>
  <text x="362.25" y="155" font-family="Arial, sans-serif" font-size="14" text-anchor="middle" fill="#666666">筛选</text>
  
  <!-- 世代统计卡片 -->
  <rect x="16" y="184" width="382" height="100" rx="8" fill="white" stroke="#EEEEEE" stroke-width="1" 
        filter="drop-shadow(0px 2px 4px rgba(0,0,0,0.05))"/>
  
  <!-- 统计数据1: 世代数 -->
  <rect x="16" y="184" width="127" height="100" fill="white" rx="8 0 0 8"/>
  <text x="79.5" y="224" font-family="Arial, sans-serif" font-size="24" font-weight="bold" text-anchor="middle" fill="#333333">6</text>
  <text x="79.5" y="250" font-family="Arial, sans-serif" font-size="14" text-anchor="middle" fill="#666666">世代数</text>
  
  <!-- 竖分隔线1 -->
  <line x1="143" y1="194" x2="143" y2="274" stroke="#EEEEEE" stroke-width="1"/>
  
  <!-- 统计数据2: 总人数 -->
  <text x="207" y="224" font-family="Arial, sans-serif" font-size="24" font-weight="bold" text-anchor="middle" fill="#333333">42</text>
  <text x="207" y="250" font-family="Arial, sans-serif" font-size="14" text-anchor="middle" fill="#666666">总人数</text>
  
  <!-- 竖分隔线2 -->
  <line x1="271" y1="194" x2="271" y2="274" stroke="#EEEEEE" stroke-width="1"/>
  
  <!-- 统计数据3: 健在人数 -->
  <rect x="271" y="184" width="127" height="100" fill="white" rx="0 8 8 0"/>
  <text x="334.5" y="224" font-family="Arial, sans-serif" font-size="24" font-weight="bold" text-anchor="middle" fill="#333333">18</text>
  <text x="334.5" y="250" font-family="Arial, sans-serif" font-size="14" text-anchor="middle" fill="#666666">健在人数</text>
  
  <!-- 世代1区域 -->
  <rect x="0" y="296" width="414" height="40" fill="#F5F5F5"/>
  <text x="16" y="320" font-family="Arial, sans-serif" font-size="14" font-weight="bold" fill="#333333">一世 (始迁祖)</text>
  <rect x="104" y="306" width="24" height="20" rx="10" fill="#B92525"/>
  <text x="116" y="320" font-family="Arial, sans-serif" font-size="12" font-weight="bold" text-anchor="middle" fill="white">1</text>
  
  <rect x="0" y="336" width="414" height="80" fill="white"/>
  <line x1="0" y1="416" x2="414" y2="416" stroke="#EEEEEE" stroke-width="1"/>
  
  <!-- 世代1成员 -->
  <rect x="16" y="346" width="70" height="60" rx="4" fill="white" stroke="#EEEEEE" stroke-width="1"/>
  <circle cx="51" cy="366" r="16" fill="#3F87F5"/>
  <text x="51" y="371" font-family="Arial, sans-serif" font-size="14" font-weight="bold" text-anchor="middle" fill="white">张</text>
  <text x="51" y="396" font-family="Arial, sans-serif" font-size="12" text-anchor="middle" fill="#333333">张世德</text>
  
  <!-- 世代2区域 -->
  <rect x="0" y="416" width="414" height="40" fill="#F5F5F5"/>
  <text x="16" y="440" font-family="Arial, sans-serif" font-size="14" font-weight="bold" fill="#333333">二世</text>
  <rect x="64" y="426" width="24" height="20" rx="10" fill="#B92525"/>
  <text x="76" y="440" font-family="Arial, sans-serif" font-size="12" font-weight="bold" text-anchor="middle" fill="white">3</text>
  
  <rect x="0" y="456" width="414" height="80" fill="white"/>
  <line x1="0" y1="536" x2="414" y2="536" stroke="#EEEEEE" stroke-width="1"/>
  
  <!-- 世代2成员 -->
  <rect x="16" y="466" width="70" height="60" rx="4" fill="white" stroke="#EEEEEE" stroke-width="1"/>
  <circle cx="51" cy="486" r="16" fill="#3F87F5"/>
  <text x="51" y="491" font-family="Arial, sans-serif" font-size="14" font-weight="bold" text-anchor="middle" fill="white">张</text>
  <text x="51" y="516" font-family="Arial, sans-serif" font-size="12" text-anchor="middle" fill="#333333">张明德</text>
  
  <rect x="96" y="466" width="70" height="60" rx="4" fill="white" stroke="#EEEEEE" stroke-width="1"/>
  <circle cx="131" cy="486" r="16" fill="#3F87F5"/>
  <text x="131" y="491" font-family="Arial, sans-serif" font-size="14" font-weight="bold" text-anchor="middle" fill="white">张</text>
  <text x="131" y="516" font-family="Arial, sans-serif" font-size="12" text-anchor="middle" fill="#333333">张明礼</text>
  
  <rect x="176" y="466" width="70" height="60" rx="4" fill="white" stroke="#EEEEEE" stroke-width="1"/>
  <circle cx="211" cy="486" r="16" fill="#3F87F5"/>
  <text x="211" y="491" font-family="Arial, sans-serif" font-size="14" font-weight="bold" text-anchor="middle" fill="white">张</text>
  <text x="211" y="516" font-family="Arial, sans-serif" font-size="12" text-anchor="middle" fill="#333333">张明信</text>
  
  <!-- 世代3区域 -->
  <rect x="0" y="536" width="414" height="40" fill="#F5F5F5"/>
  <text x="16" y="560" font-family="Arial, sans-serif" font-size="14" font-weight="bold" fill="#333333">三世</text>
  <rect x="64" y="546" width="24" height="20" rx="10" fill="#B92525"/>
  <text x="76" y="560" font-family="Arial, sans-serif" font-size="12" font-weight="bold" text-anchor="middle" fill="white">9</text>
  
  <rect x="0" y="576" width="414" height="80" fill="white"/>
  <line x1="0" y1="656" x2="414" y2="656" stroke="#EEEEEE" stroke-width="1"/>
  
  <!-- 世代3成员 (第一排) -->
  <rect x="16" y="586" width="70" height="60" rx="4" fill="#FFFAF0" stroke="#FFB100" stroke-width="1.5"/>
  <circle cx="51" cy="606" r="16" fill="#FFB100"/>
  <text x="51" y="611" font-family="Arial, sans-serif" font-size="14" font-weight="bold" text-anchor="middle" fill="white">张</text>
  <text x="51" y="636" font-family="Arial, sans-serif" font-size="12" text-anchor="middle" fill="#333333">张永康</text>
  
  <rect x="96" y="586" width="70" height="60" rx="4" fill="white" stroke="#EEEEEE" stroke-width="1"/>
  <circle cx="131" cy="606" r="16" fill="#3F87F5"/>
  <text x="131" y="611" font-family="Arial, sans-serif" font-size="14" font-weight="bold" text-anchor="middle" fill="white">张</text>
  <text x="131" y="636" font-family="Arial, sans-serif" font-size="12" text-anchor="middle" fill="#333333">张永安</text>
  
  <rect x="176" y="586" width="70" height="60" rx="4" fill="white" stroke="#EEEEEE" stroke-width="1"/>
  <circle cx="211" cy="606" r="16" fill="#3F87F5"/>
  <text x="211" y="611" font-family="Arial, sans-serif" font-size="14" font-weight="bold" text-anchor="middle" fill="white">张</text>
  <text x="211" y="636" font-family="Arial, sans-serif" font-size="12" text-anchor="middle" fill="#333333">张永仁</text>
  
  <rect x="256" y="586" width="70" height="60" rx="4" fill="white" stroke="#EEEEEE" stroke-width="1"/>
  <circle cx="291" cy="606" r="16" fill="#FF5252"/>
  <text x="291" y="611" font-family="Arial, sans-serif" font-size="14" font-weight="bold" text-anchor="middle" fill="white">张</text>
  <text x="291" y="636" font-family="Arial, sans-serif" font-size="12" text-anchor="middle" fill="#333333">张秀芳</text>
  
  <rect x="336" y="586" width="70" height="60" rx="4" fill="white" stroke="#EEEEEE" stroke-width="1"/>
  <circle cx="371" cy="606" r="16" fill="#3F87F5"/>
  <text x="371" y="611" font-family="Arial, sans-serif" font-size="14" font-weight="bold" text-anchor="middle" fill="white">张</text>
  <text x="371" y="636" font-family="Arial, sans-serif" font-size="12" text-anchor="middle" fill="#333333">更多...</text>
  
  <!-- 底部导航栏 -->
  <rect y="856" width="414" height="40" fill="white"/>
  <line x1="0" y1="856" x2="414" y2="856" stroke="#EEEEEE" stroke-width="1"/>
  
  <text x="51.75" y="880" font-family="Arial, sans-serif" font-size="10" text-anchor="middle" fill="#666666">首页</text>
  <path d="M51.75 870 L57.75 864 L51.75 858 L45.75 864 Z" fill="none" stroke="#666666" stroke-width="1"/>
  
  <text x="155.25" y="880" font-family="Arial, sans-serif" font-size="10" text-anchor="middle" font-weight="bold" fill="#B92525">族谱</text>
  <path d="M143.25 864 L155.25 864 M149.25 858 L149.25 870 M161.25 864 L167.25 870 M161.25 864 L167.25 858" fill="none" stroke="#B92525" stroke-width="1.5"/>
  
  <text x="258.75" y="880" font-family="Arial, sans-serif" font-size="10" text-anchor="middle" fill="#666666">家史</text>
  <path d="M252.75 861 L264.75 861 L264.75 870 L252.75 870 Z" fill="none" stroke="#666666" stroke-width="1"/>
  <line x1="252.75" y1="865" x2="264.75" y2="865" stroke="#666666" stroke-width="1"/>
  
  <text x="362.25" y="880" font-family="Arial, sans-serif" font-size="10" text-anchor="middle" fill="#666666">我的</text>
  <circle cx="362.25" cy="864" r="6" fill="none" stroke="#666666" stroke-width="1"/>
  <path d="M356.25 873 L368.25 873 M362.25 870 L362.25 876" stroke="#666666" stroke-width="1"/>
  
  <!-- 浮动操作按钮 -->
  <circle cx="374" cy="782" r="24" fill="#B92525"/>
  <path d="M367 782 L381 782 M374 775 L374 789" stroke="white" stroke-width="2"/>
</svg> 