<?xml version="1.0" encoding="UTF-8"?>
<svg width="414" height="896" viewBox="0 0 414 896" xmlns="http://www.w3.org/2000/svg">
  <!-- 背景 -->
  <rect width="414" height="896" fill="white"/>
  
  <!-- 顶部导航栏 -->
  <rect width="414" height="64" fill="white"/>
  <line x1="0" y1="64" x2="414" y2="64" stroke="#EEEEEE" stroke-width="1"/>
  <text x="207" y="36" font-family="Arial, sans-serif" font-size="18" font-weight="bold" text-anchor="middle" fill="#333333">家族成员详情</text>
  <path d="M24 32 L16 32 M16 32 L20 28 M16 32 L20 36" stroke="#666666" stroke-width="2" stroke-linecap="round"/>
  <circle cx="382" cy="32" r="2" fill="#666666"/>
  <circle cx="390" cy="32" r="2" fill="#666666"/>
  <circle cx="398" cy="32" r="2" fill="#666666"/>
  
  <!-- 成员基本信息卡片 -->
  <rect x="0" y="64" width="414" height="160" fill="#FFFAF0" filter="drop-shadow(0px 2px 4px rgba(0,0,0,0.05))"/>
  <line x1="0" y1="224" x2="414" y2="224" stroke="#EEEEEE" stroke-width="1"/>
  
  <defs>
    <linearGradient id="avatarGradient" x1="0%" y1="0%" x2="100%" y2="100%">
      <stop offset="0%" style="stop-color:#FFD54F"/>
      <stop offset="100%" style="stop-color:#FFB100"/>
    </linearGradient>
  </defs>
  <circle cx="60" cy="136" r="40" fill="url(#avatarGradient)"/>
  
  <text x="120" y="116" font-family="Arial, sans-serif" font-size="22" font-weight="bold" fill="#333333">张永康</text>
  <text x="200" y="116" font-family="Arial, sans-serif" font-size="12" fill="#888888">三世</text>
  <rect x="230" y="106" width="40" height="16" rx="4" fill="#EEEEEE" stroke="#DDDDDD" stroke-width="0.5"/>
  <text x="250" y="117" font-family="Arial, sans-serif" font-size="10" font-weight="bold" text-anchor="middle" fill="#616161">已故</text>
  
  <text x="120" y="146" font-family="Arial, sans-serif" font-size="14" fill="#666666">1870年 - 1935年 (享年65岁)</text>
  <text x="120" y="168" font-family="Arial, sans-serif" font-size="14" fill="#666666">张明德长子 · 商人 · 上海</text>
  
  <path d="M325 118 L325 154 M308 136 L342 136" stroke="#999999" stroke-width="1"/>
  <text x="325" y="108" font-family="Arial, sans-serif" font-size="12" text-anchor="middle" fill="#999999">家系图</text>
  
  <path d="M374 118 L374 154 M357 136 L391 136" stroke="#999999" stroke-width="1" transform="rotate(45 374 136)"/>
  <text x="374" y="108" font-family="Arial, sans-serif" font-size="12" text-anchor="middle" fill="#999999">编辑</text>
  
  <!-- 信息导航栏 -->
  <rect x="0" y="224" width="414" height="44" fill="white"/>
  <line x1="0" y1="268" x2="414" y2="268" stroke="#EEEEEE" stroke-width="1"/>
  
  <rect x="0" y="224" width="103.5" height="44" fill="white"/>
  <line x1="0" y1="266" x2="103.5" y2="266" stroke="#B92525" stroke-width="2"/>
  <text x="51.75" y="248" font-family="Arial, sans-serif" font-size="14" font-weight="bold" text-anchor="middle" fill="#B92525">基本信息</text>
  
  <rect x="103.5" y="224" width="103.5" height="44" fill="white"/>
  <text x="155.25" y="248" font-family="Arial, sans-serif" font-size="14" text-anchor="middle" fill="#666666">生平事迹</text>
  
  <rect x="207" y="224" width="103.5" height="44" fill="white"/>
  <text x="258.75" y="248" font-family="Arial, sans-serif" font-size="14" text-anchor="middle" fill="#666666">家庭成员</text>
  
  <rect x="310.5" y="224" width="103.5" height="44" fill="white"/>
  <text x="362.25" y="248" font-family="Arial, sans-serif" font-size="14" text-anchor="middle" fill="#666666">图片资料</text>
  
  <!-- 段落标题1 -->
  <rect x="0" y="268" width="414" height="40" fill="white"/>
  <text x="16" y="294" font-family="Arial, sans-serif" font-size="16" font-weight="bold" fill="#333333">个人资料</text>
  
  <!-- 个人资料卡片 -->
  <rect x="16" y="320" width="382" height="176" rx="8" fill="white" stroke="#EEEEEE" stroke-width="1"/>
  
  <line x1="16" y1="360" x2="398" y2="360" stroke="#EEEEEE" stroke-width="1"/>
  <text x="36" y="346" font-family="Arial, sans-serif" font-size="14" fill="#666666">出生时间</text>
  <text x="378" y="346" font-family="Arial, sans-serif" font-size="14" text-anchor="end" fill="#333333">1870年8月15日</text>
  
  <line x1="16" y1="400" x2="398" y2="400" stroke="#EEEEEE" stroke-width="1"/>
  <text x="36" y="386" font-family="Arial, sans-serif" font-size="14" fill="#666666">出生地点</text>
  <text x="378" y="386" font-family="Arial, sans-serif" font-size="14" text-anchor="end" fill="#333333">河南省商丘市</text>
  
  <line x1="16" y1="440" x2="398" y2="440" stroke="#EEEEEE" stroke-width="1"/>
  <text x="36" y="426" font-family="Arial, sans-serif" font-size="14" fill="#666666">逝世时间</text>
  <text x="378" y="426" font-family="Arial, sans-serif" font-size="14" text-anchor="end" fill="#333333">1935年4月23日</text>
  
  <text x="36" y="466" font-family="Arial, sans-serif" font-size="14" fill="#666666">逝世地点</text>
  <text x="378" y="466" font-family="Arial, sans-serif" font-size="14" text-anchor="end" fill="#333333">上海市黄浦区</text>
  
  <!-- 段落标题2 -->
  <rect x="0" y="508" width="414" height="40" fill="white"/>
  <text x="16" y="534" font-family="Arial, sans-serif" font-size="16" font-weight="bold" fill="#333333">教育与职业</text>
  
  <!-- 教育职业卡片 -->
  <rect x="16" y="560" width="382" height="136" rx="8" fill="white" stroke="#EEEEEE" stroke-width="1"/>
  
  <line x1="16" y1="600" x2="398" y2="600" stroke="#EEEEEE" stroke-width="1"/>
  <text x="36" y="586" font-family="Arial, sans-serif" font-size="14" fill="#666666">教育背景</text>
  <text x="378" y="586" font-family="Arial, sans-serif" font-size="14" text-anchor="end" fill="#333333">私塾教育</text>
  
  <line x1="16" y1="640" x2="398" y2="640" stroke="#EEEEEE" stroke-width="1"/>
  <text x="36" y="626" font-family="Arial, sans-serif" font-size="14" fill="#666666">职业</text>
  <text x="378" y="626" font-family="Arial, sans-serif" font-size="14" text-anchor="end" fill="#333333">商人</text>
  
  <text x="36" y="666" font-family="Arial, sans-serif" font-size="14" fill="#666666">成就</text>
  <text x="378" y="666" font-family="Arial, sans-serif" font-size="14" text-anchor="end" fill="#333333">创办上海永康商行</text>
  
  <!-- 段落标题3 -->
  <rect x="0" y="708" width="414" height="40" fill="white"/>
  <text x="16" y="734" font-family="Arial, sans-serif" font-size="16" font-weight="bold" fill="#333333">亲属关系</text>
  
  <!-- 亲属关系卡片 -->
  <rect x="16" y="760" width="382" height="80" rx="8" fill="white" stroke="#EEEEEE" stroke-width="1"/>
  
  <line x1="16" y1="800" x2="398" y2="800" stroke="#EEEEEE" stroke-width="1"/>
  <text x="36" y="786" font-family="Arial, sans-serif" font-size="14" fill="#666666">配偶</text>
  <text x="378" y="786" font-family="Arial, sans-serif" font-size="14" text-anchor="end" fill="#333333">王氏 (1875-1940)</text>
  
  <text x="36" y="826" font-family="Arial, sans-serif" font-size="14" fill="#666666">子女</text>
  <text x="378" y="826" font-family="Arial, sans-serif" font-size="14" text-anchor="end" fill="#333333">张国华、张国强 (共2人)</text>
  
  <!-- 底部导航栏 -->
  <rect y="856" width="414" height="40" fill="white"/>
  <line x1="0" y1="856" x2="414" y2="856" stroke="#EEEEEE" stroke-width="1"/>
  
  <text x="51.75" y="880" font-family="Arial, sans-serif" font-size="10" text-anchor="middle" fill="#666666">首页</text>
  <path d="M51.75 870 L57.75 864 L51.75 858 L45.75 864 Z" fill="none" stroke="#666666" stroke-width="1"/>
  
  <text x="155.25" y="880" font-family="Arial, sans-serif" font-size="10" text-anchor="middle" font-weight="bold" fill="#B92525">族谱</text>
  <path d="M143.25 864 L155.25 864 M149.25 858 L149.25 870 M161.25 864 L167.25 870 M161.25 864 L167.25 858" fill="none" stroke="#B92525" stroke-width="1.5"/>
  
  <text x="258.75" y="880" font-family="Arial, sans-serif" font-size="10" text-anchor="middle" fill="#666666">家史</text>
  <path d="M252.75 861 L264.75 861 L264.75 870 L252.75 870 Z" fill="none" stroke="#666666" stroke-width="1"/>
  <line x1="252.75" y1="865" x2="264.75" y2="865" stroke="#666666" stroke-width="1"/>
  
  <text x="362.25" y="880" font-family="Arial, sans-serif" font-size="10" text-anchor="middle" fill="#666666">我的</text>
  <circle cx="362.25" cy="864" r="6" fill="none" stroke="#666666" stroke-width="1"/>
  <path d="M356.25 873 L368.25 873 M362.25 870 L362.25 876" stroke="#666666" stroke-width="1"/>
</svg> 