<?xml version="1.0" encoding="UTF-8"?>
<svg width="414" height="896" viewBox="0 0 414 896" xmlns="http://www.w3.org/2000/svg">
  <!-- 背景 -->
  <rect width="414" height="896" fill="#F5F5F5"/>
  
  <!-- 顶部导航栏 -->
  <rect width="414" height="64" fill="#B92525"/>
  <text x="207" y="36" font-family="Arial, sans-serif" font-size="18" font-weight="bold" text-anchor="middle" fill="white">张氏家谱</text>
  <circle cx="382" cy="32" r="2" fill="white"/>
  <circle cx="390" cy="32" r="2" fill="white"/>
  <circle cx="398" cy="32" r="2" fill="white"/>
  
  <!-- 家族概况卡片 -->
  <rect x="16" y="84" width="382" height="160" rx="8" fill="white"/>
  
  <text x="36" y="114" font-family="Arial, sans-serif" font-size="16" font-weight="bold" fill="#333333">张氏家族</text>
  <text x="36" y="140" font-family="Arial, sans-serif" font-size="14" fill="#666666">始迁祖: 张世德 (1824-1898)</text>
  <text x="36" y="164" font-family="Arial, sans-serif" font-size="14" fill="#666666">世系: 6代</text>
  <text x="36" y="188" font-family="Arial, sans-serif" font-size="14" fill="#666666">成员: 42人 (在世18人)</text>
  <text x="36" y="212" font-family="Arial, sans-serif" font-size="14" fill="#666666">家族谱修订于: 2023年6月</text>
  
  <rect x="248" y="104" width="120" height="120" fill="#F8F8F8" rx="8"/>
  <circle cx="308" cy="164" r="40" fill="#DDDDDD"/>
  <path d="M288 164 L328 164 M308 144 L308 184" stroke="#BBBBBB" stroke-width="3"/>
  
  <!-- 功能模块区域 -->
  <rect x="16" y="260" width="186" height="120" rx="8" fill="white"/>
  <circle cx="109" cy="300" r="28" fill="#F2E3E3"/>
  <path d="M109 290 L99 300 L109 310 L119 300 Z" fill="#B92525"/>
  <text x="109" y="348" font-family="Arial, sans-serif" font-size="14" font-weight="bold" text-anchor="middle" fill="#333333">家族族谱</text>
  
  <rect x="212" y="260" width="186" height="120" rx="8" fill="white"/>
  <circle cx="305" cy="300" r="28" fill="#E3EAF2"/>
  <path d="M293 290 L317 290 L317 300 L293 300 Z" fill="#3F87F5"/>
  <line x1="293" y1="294" x2="317" y2="294" stroke="#3F87F5" stroke-width="1"/>
  <path d="M293 305 L317 305 L317 315 L293 315 Z" fill="#3F87F5"/>
  <line x1="293" y1="309" x2="317" y2="309" stroke="#3F87F5" stroke-width="1"/>
  <text x="305" y="348" font-family="Arial, sans-serif" font-size="14" font-weight="bold" text-anchor="middle" fill="#333333">家族故事</text>
  
  <rect x="16" y="396" width="186" height="120" rx="8" fill="white"/>
  <circle cx="109" cy="436" r="28" fill="#E3F2EC"/>
  <path d="M109 421 L124 436 L109 451 L94 436 Z" fill="#4CAF50"/>
  <text x="109" y="484" font-family="Arial, sans-serif" font-size="14" font-weight="bold" text-anchor="middle" fill="#333333">家族活动</text>
  
  <rect x="212" y="396" width="186" height="120" rx="8" fill="white"/>
  <circle cx="305" cy="436" r="28" fill="#FFF4E3"/>
  <path d="M297 421 L313 421 L313 436 L297 436 Z" fill="#FF9800"/>
  <path d="M297 436 L313 436 L313 451 L305 451 L297 436 Z" fill="#FF9800"/>
  <text x="305" y="484" font-family="Arial, sans-serif" font-size="14" font-weight="bold" text-anchor="middle" fill="#333333">祭祖日历</text>
  
  <!-- 最近动态 -->
  <rect x="16" y="532" width="382" height="40" rx="8" fill="white"/>
  <text x="36" y="557" font-family="Arial, sans-serif" font-size="16" font-weight="bold" fill="#333333">最近动态</text>
  <text x="362" y="557" font-family="Arial, sans-serif" font-size="14" text-anchor="end" fill="#B92525">更多</text>
  
  <!-- 动态项目1 -->
  <rect x="16" y="584" width="382" height="80" rx="8" fill="white"/>
  <text x="76" y="612" font-family="Arial, sans-serif" font-size="14" font-weight="bold" fill="#333333">张大明添加了新家庭成员</text>
  <text x="76" y="634" font-family="Arial, sans-serif" font-size="12" fill="#666666">2023-06-15 10:30</text>
  <circle cx="46" cy="622" r="20" fill="#3F87F5"/>
  <text x="46" y="626" font-family="Arial, sans-serif" font-size="14" font-weight="bold" text-anchor="middle" fill="white">张</text>
  <circle cx="362" cy="622" r="3" fill="#CCCCCC"/>
  <circle cx="372" cy="622" r="3" fill="#CCCCCC"/>
  <circle cx="382" cy="622" r="3" fill="#CCCCCC"/>
  
  <!-- 动态项目2 -->
  <rect x="16" y="674" width="382" height="80" rx="8" fill="white"/>
  <text x="76" y="702" font-family="Arial, sans-serif" font-size="14" font-weight="bold" fill="#333333">张文华发布了《张氏家训》解读</text>
  <text x="76" y="724" font-family="Arial, sans-serif" font-size="12" fill="#666666">2023-06-12 15:45</text>
  <circle cx="46" cy="712" r="20" fill="#3F87F5"/>
  <text x="46" y="716" font-family="Arial, sans-serif" font-size="14" font-weight="bold" text-anchor="middle" fill="white">张</text>
  <circle cx="362" cy="712" r="3" fill="#CCCCCC"/>
  <circle cx="372" cy="712" r="3" fill="#CCCCCC"/>
  <circle cx="382" cy="712" r="3" fill="#CCCCCC"/>
  
  <!-- 动态项目3 -->
  <rect x="16" y="764" width="382" height="80" rx="8" fill="white"/>
  <text x="76" y="792" font-family="Arial, sans-serif" font-size="14" font-weight="bold" fill="#333333">宗亲会通知：2023年祭祖活动安排</text>
  <text x="76" y="814" font-family="Arial, sans-serif" font-size="12" fill="#666666">2023-06-10 08:20</text>
  <circle cx="46" cy="802" r="20" fill="#FF9800"/>
  <text x="46" y="806" font-family="Arial, sans-serif" font-size="14" font-weight="bold" text-anchor="middle" fill="white">通</text>
  <circle cx="362" cy="802" r="3" fill="#CCCCCC"/>
  <circle cx="372" cy="802" r="3" fill="#CCCCCC"/>
  <circle cx="382" cy="802" r="3" fill="#CCCCCC"/>
  
  <!-- 底部导航栏 -->
  <rect y="856" width="414" height="40" fill="white"/>
  <line x1="0" y1="856" x2="414" y2="856" stroke="#EEEEEE" stroke-width="1"/>
  
  <text x="51.75" y="880" font-family="Arial, sans-serif" font-size="10" text-anchor="middle" font-weight="bold" fill="#B92525">首页</text>
  <path d="M51.75 870 L57.75 864 L51.75 858 L45.75 864 Z" fill="none" stroke="#B92525" stroke-width="1.5"/>
  
  <text x="155.25" y="880" font-family="Arial, sans-serif" font-size="10" text-anchor="middle" fill="#666666">族谱</text>
  <path d="M143.25 864 L155.25 864 M149.25 858 L149.25 870 M161.25 864 L167.25 870 M161.25 864 L167.25 858" fill="none" stroke="#666666" stroke-width="1"/>
  
  <text x="258.75" y="880" font-family="Arial, sans-serif" font-size="10" text-anchor="middle" fill="#666666">家史</text>
  <path d="M252.75 861 L264.75 861 L264.75 870 L252.75 870 Z" fill="none" stroke="#666666" stroke-width="1"/>
  <line x1="252.75" y1="865" x2="264.75" y2="865" stroke="#666666" stroke-width="1"/>
  
  <text x="362.25" y="880" font-family="Arial, sans-serif" font-size="10" text-anchor="middle" fill="#666666">我的</text>
  <circle cx="362.25" cy="864" r="6" fill="none" stroke="#666666" stroke-width="1"/>
  <path d="M356.25 873 L368.25 873 M362.25 870 L362.25 876" stroke="#666666" stroke-width="1"/>
  
  <!-- 浮动操作按钮 -->
  <circle cx="374" cy="782" r="24" fill="#B92525"/>
  <path d="M367 782 L381 782 M374 775 L374 789" stroke="white" stroke-width="2"/>
</svg> 