<?xml version="1.0" encoding="UTF-8"?>
<svg width="414" height="896" viewBox="0 0 414 896" xmlns="http://www.w3.org/2000/svg">
  <!-- 背景 -->
  <rect width="414" height="896" fill="#F5F5F5"/>
  
  <!-- 顶部个人信息卡片 -->
  <rect width="414" height="200" fill="#B92525"/>
  
  <circle cx="80" cy="100" r="40" fill="white"/>
  <text x="80" y="108" font-family="Arial, sans-serif" font-size="24" font-weight="bold" text-anchor="middle" fill="#B92525">张</text>
  
  <text x="140" y="92" font-family="Arial, sans-serif" font-size="18" font-weight="bold" fill="white">张大明</text>
  <text x="140" y="116" font-family="Arial, sans-serif" font-size="14" fill="white">张永康曾孙 · 五世</text>
  
  <text x="370" y="104" font-family="Arial, sans-serif" font-size="14" text-anchor="end" fill="white">编辑资料</text>
  <path d="M380 104 L386 98 L384 98 L384 94 L376 102 L384 110 L384 106 L386 106 Z" fill="white"/>
  
  <!-- 功能卡片区域 -->
  <rect x="16" y="220" width="382" height="196" rx="8" fill="white"/>
  
  <!-- 我的家谱 -->
  <line x1="16" y1="276" x2="398" y2="276" stroke="#EEEEEE" stroke-width="1"/>
  <circle cx="46" cy="248" r="16" fill="#FFE0E0"/>
  <path d="M46 242 L41 247 L46 252 L51 247 Z" fill="#B92525"/>
  <text x="76" y="252" font-family="Arial, sans-serif" font-size="16" fill="#333333">我的家谱</text>
  <text x="370" y="252" font-family="Arial, sans-serif" font-size="16" text-anchor="end" fill="#666666">></text>
  
  <!-- 收藏故事 -->
  <line x1="16" y1="332" x2="398" y2="332" stroke="#EEEEEE" stroke-width="1"/>
  <circle cx="46" cy="304" r="16" fill="#E0F0FF"/>
  <path d="M46 298 L41 303 L46 308 L51 303 Z" fill="#3F87F5"/>
  <text x="76" y="308" font-family="Arial, sans-serif" font-size="16" fill="#333333">收藏故事</text>
  <text x="370" y="308" font-family="Arial, sans-serif" font-size="16" text-anchor="end" fill="#666666">></text>
  
  <!-- 贡献记录 -->
  <circle cx="46" cy="360" r="16" fill="#E6F5E6"/>
  <path d="M46 354 L41 359 L46 364 L51 359 Z" fill="#4CAF50"/>
  <text x="76" y="364" font-family="Arial, sans-serif" font-size="16" fill="#333333">贡献记录</text>
  <text x="370" y="364" font-family="Arial, sans-serif" font-size="16" text-anchor="end" fill="#666666">></text>
  
  <!-- 设置卡片区域 -->
  <rect x="16" y="436" width="382" height="252" rx="8" fill="white"/>
  
  <!-- 消息通知 -->
  <line x1="16" y1="492" x2="398" y2="492" stroke="#EEEEEE" stroke-width="1"/>
  <circle cx="46" cy="464" r="16" fill="#FFF0E0"/>
  <path d="M38 464 L46 464 L46 456 M46 464 L54 464" stroke="#FF9800" stroke-width="2" fill="none"/>
  <text x="76" y="468" font-family="Arial, sans-serif" font-size="16" fill="#333333">消息通知</text>
  <text x="370" y="468" font-family="Arial, sans-serif" font-size="16" text-anchor="end" fill="#666666">></text>
  
  <!-- 隐私设置 -->
  <line x1="16" y1="548" x2="398" y2="548" stroke="#EEEEEE" stroke-width="1"/>
  <circle cx="46" cy="520" r="16" fill="#F0E0FF"/>
  <path d="M42 520 L50 520 M46 516 L46 524" stroke="#9C27B0" stroke-width="2" fill="none"/>
  <text x="76" y="524" font-family="Arial, sans-serif" font-size="16" fill="#333333">隐私设置</text>
  <text x="370" y="524" font-family="Arial, sans-serif" font-size="16" text-anchor="end" fill="#666666">></text>
  
  <!-- 账号安全 -->
  <line x1="16" y1="604" x2="398" y2="604" stroke="#EEEEEE" stroke-width="1"/>
  <circle cx="46" cy="576" r="16" fill="#E0F2F1"/>
  <path d="M46 570 L52 576 L46 582 L40 576 Z" stroke="#009688" stroke-width="2" fill="none"/>
  <text x="76" y="580" font-family="Arial, sans-serif" font-size="16" fill="#333333">账号安全</text>
  <text x="370" y="580" font-family="Arial, sans-serif" font-size="16" text-anchor="end" fill="#666666">></text>
  
  <!-- 关于我们 -->
  <circle cx="46" cy="632" r="16" fill="#ECEFF1"/>
  <path d="M46 626 L46 634 M46 638 L46 638" stroke="#607D8B" stroke-width="2" fill="none"/>
  <text x="76" y="636" font-family="Arial, sans-serif" font-size="16" fill="#333333">关于我们</text>
  <text x="370" y="636" font-family="Arial, sans-serif" font-size="16" text-anchor="end" fill="#666666">></text>
  
  <!-- 退出登录按钮 -->
  <rect x="16" y="708" width="382" height="48" rx="24" fill="white"/>
  <text x="207" y="736" font-family="Arial, sans-serif" font-size="16" font-weight="bold" text-anchor="middle" fill="#B92525">退出登录</text>
  
  <!-- 底部导航栏 -->
  <rect y="856" width="414" height="40" fill="white"/>
  <line x1="0" y1="856" x2="414" y2="856" stroke="#EEEEEE" stroke-width="1"/>
  
  <text x="51.75" y="880" font-family="Arial, sans-serif" font-size="10" text-anchor="middle" fill="#666666">首页</text>
  <path d="M51.75 870 L57.75 864 L51.75 858 L45.75 864 Z" fill="none" stroke="#666666" stroke-width="1"/>
  
  <text x="155.25" y="880" font-family="Arial, sans-serif" font-size="10" text-anchor="middle" fill="#666666">族谱</text>
  <path d="M143.25 864 L155.25 864 M149.25 858 L149.25 870 M161.25 864 L167.25 870 M161.25 864 L167.25 858" fill="none" stroke="#666666" stroke-width="1"/>
  
  <text x="258.75" y="880" font-family="Arial, sans-serif" font-size="10" text-anchor="middle" fill="#666666">家史</text>
  <path d="M252.75 861 L264.75 861 L264.75 870 L252.75 870 Z" fill="none" stroke="#666666" stroke-width="1"/>
  <line x1="252.75" y1="865" x2="264.75" y2="865" stroke="#666666" stroke-width="1"/>
  
  <text x="362.25" y="880" font-family="Arial, sans-serif" font-size="10" text-anchor="middle" font-weight="bold" fill="#B92525">我的</text>
  <circle cx="362.25" cy="864" r="6" fill="none" stroke="#B92525" stroke-width="1.5"/>
  <path d="M356.25 873 L368.25 873 M362.25 870 L362.25 876" stroke="#B92525" stroke-width="1.5"/>
</svg> 